<?xml version="1.0" encoding="UTF-8"?>
<svg id="Ebene_1" xmlns="http://www.w3.org/2000/svg" xmlns:xlink="http://www.w3.org/1999/xlink" version="1.1" viewBox="0 0 600 600">
  <!-- Generator: Adobe Illustrator 30.0.0, SVG Export Plug-In . SVG Version: 2.1.1 Build 123)  -->
  <defs>
    <style>
      .st0 {
        fill: url(#Unbenannter_Verlauf);
      }

      .st1 {
        fill: url(#Unbenannter_Verlauf_2);
      }

      .st2 {
        fill: url(#Unbenannter_Verlauf_4);
      }

      .st3 {
        fill: url(#Unbenannter_Verlauf_3);
      }

      .st4 {
        fill: url(#Unbenannter_Verlauf_8);
      }

      .st5 {
        fill: url(#Unbenannter_Verlauf_6);
      }

      .st6 {
        fill: url(#Unbenannter_Verlauf_7);
      }

      .st7 {
        fill: url(#Unbenannter_Verlauf_5);
      }

      .st8 {
        fill: url(#Unbenannter_Verlauf_9);
      }

      .st9 {
        fill: #fff;
      }

      .st10 {
        fill: #d9d9e4;
      }

      .st11 {
        fill: url(#Unbenannter_Verlauf_14);
      }

      .st12 {
        fill: url(#Unbenannter_Verlauf_15);
      }

      .st13 {
        fill: url(#Unbenannter_Verlauf_12);
      }

      .st14 {
        fill: url(#Unbenannter_Verlauf_13);
      }

      .st15 {
        fill: url(#Unbenannter_Verlauf_20);
      }

      .st16 {
        fill: url(#Unbenannter_Verlauf_21);
      }

      .st17 {
        fill: url(#Unbenannter_Verlauf_26);
      }

      .st18 {
        fill: url(#Unbenannter_Verlauf_27);
      }

      .st19 {
        fill: url(#Unbenannter_Verlauf_28);
      }

      .st20 {
        fill: url(#Unbenannter_Verlauf_29);
      }

      .st21 {
        fill: url(#Unbenannter_Verlauf_22);
      }

      .st22 {
        fill: url(#Unbenannter_Verlauf_23);
      }

      .st23 {
        fill: url(#Unbenannter_Verlauf_24);
      }

      .st24 {
        fill: url(#Unbenannter_Verlauf_25);
      }

      .st25 {
        fill: url(#Unbenannter_Verlauf_18);
      }

      .st26 {
        fill: url(#Unbenannter_Verlauf_19);
      }

      .st27 {
        fill: url(#Unbenannter_Verlauf_16);
      }

      .st28 {
        fill: url(#Unbenannter_Verlauf_17);
      }

      .st29 {
        fill: url(#Unbenannter_Verlauf_37);
      }

      .st30 {
        fill: url(#Unbenannter_Verlauf_31);
      }

      .st31 {
        fill: url(#Unbenannter_Verlauf_36);
      }

      .st32 {
        fill: url(#Unbenannter_Verlauf_30);
      }

      .st33 {
        fill: url(#Unbenannter_Verlauf_39);
      }

      .st34 {
        fill: url(#Unbenannter_Verlauf_34);
      }

      .st35 {
        fill: url(#Unbenannter_Verlauf_32);
      }

      .st36 {
        fill: url(#Unbenannter_Verlauf_33);
      }

      .st37 {
        fill: url(#Unbenannter_Verlauf_35);
      }

      .st38 {
        fill: url(#Unbenannter_Verlauf_40);
      }

      .st39 {
        fill: url(#Unbenannter_Verlauf_41);
      }

      .st40 {
        fill: url(#Unbenannter_Verlauf_43);
      }

      .st41 {
        fill: url(#Unbenannter_Verlauf_42);
      }

      .st42 {
        fill: url(#Unbenannter_Verlauf_44);
      }

      .st43 {
        fill: url(#Unbenannter_Verlauf_38);
      }

      .st44 {
        fill: url(#Unbenannter_Verlauf_10);
      }

      .st45 {
        fill: url(#Unbenannter_Verlauf_11);
      }
    </style>
    <linearGradient id="Unbenannter_Verlauf" data-name="Unbenannter Verlauf" x1="404.7" y1="282.1" x2="190.1" y2="325.1" gradientTransform="translate(0 599.9) scale(1 -1)" gradientUnits="userSpaceOnUse">
      <stop offset="0" stop-color="#8dbedd"/>
      <stop offset="1" stop-color="#a9d0e2"/>
    </linearGradient>
    <linearGradient id="Unbenannter_Verlauf_2" data-name="Unbenannter Verlauf 2" x1="399.6" y1="280.3" x2="187" y2="322.9" gradientTransform="translate(0 599.9) scale(1 -1)" gradientUnits="userSpaceOnUse">
      <stop offset="0" stop-color="#c1e7ff"/>
      <stop offset="1" stop-color="#daf3ff"/>
    </linearGradient>
    <linearGradient id="Unbenannter_Verlauf_3" data-name="Unbenannter Verlauf 3" x1="-647.1" y1="621.1" x2="-645.7" y2="621.1" gradientTransform="translate(388366.1 -225367.9) rotate(13.7) scale(500.7)" gradientUnits="userSpaceOnUse">
      <stop offset="0" stop-color="#21b3d8"/>
      <stop offset="0" stop-color="#21b3d8"/>
      <stop offset="1" stop-color="#2134e2"/>
    </linearGradient>
    <linearGradient id="Unbenannter_Verlauf_4" data-name="Unbenannter Verlauf 4" x1="-647.1" y1="621" x2="-645.7" y2="621" gradientTransform="translate(388366.1 -225367.9) rotate(13.7) scale(500.7)" gradientUnits="userSpaceOnUse">
      <stop offset="0" stop-color="#1fa3c7"/>
      <stop offset="0" stop-color="#1fa3c7"/>
      <stop offset="1" stop-color="#1f31d0"/>
    </linearGradient>
    <linearGradient id="Unbenannter_Verlauf_5" data-name="Unbenannter Verlauf 5" x1="119.2" y1="432" x2="1166.2" y2="-31.9" gradientTransform="translate(0 599.9) scale(1 -1)" gradientUnits="userSpaceOnUse">
      <stop offset="0" stop-color="#1d96b8"/>
      <stop offset="1" stop-color="#1f31d0"/>
    </linearGradient>
    <linearGradient id="Unbenannter_Verlauf_6" data-name="Unbenannter Verlauf 6" x1="151.6" y1="251.2" x2="779.3" y2="-8" gradientTransform="translate(0 599.9) scale(1 -1)" gradientUnits="userSpaceOnUse">
      <stop offset="0" stop-color="#1fa3c7"/>
      <stop offset="0" stop-color="#1fa3c7"/>
      <stop offset="1" stop-color="#1f31d0"/>
    </linearGradient>
    <linearGradient id="Unbenannter_Verlauf_7" data-name="Unbenannter Verlauf 7" x1="181.6" y1="249.1" x2="735.7" y2="-32.3" gradientTransform="translate(0 599.9) scale(1 -1)" gradientUnits="userSpaceOnUse">
      <stop offset="0" stop-color="#1d96b8"/>
      <stop offset="1" stop-color="#1f31d0"/>
    </linearGradient>
    <linearGradient id="Unbenannter_Verlauf_8" data-name="Unbenannter Verlauf 8" x1="116" y1="385.1" x2="1229.3" y2="-131.8" gradientTransform="translate(0 599.9) scale(1 -1)" gradientUnits="userSpaceOnUse">
      <stop offset="0" stop-color="#1d96b8"/>
      <stop offset="1" stop-color="#1f31d0"/>
    </linearGradient>
    <linearGradient id="Unbenannter_Verlauf_9" data-name="Unbenannter Verlauf 9" x1="112.3" y1="377.1" x2="1225.6" y2="-139.8" gradientTransform="translate(0 599.9) scale(1 -1)" gradientUnits="userSpaceOnUse">
      <stop offset="0" stop-color="#1d96b8"/>
      <stop offset="1" stop-color="#1f31d0"/>
    </linearGradient>
    <linearGradient id="Unbenannter_Verlauf_10" data-name="Unbenannter Verlauf 10" x1="125.6" y1="280.5" x2="856.4" y2="44.5" gradientTransform="translate(0 599.9) scale(1 -1)" gradientUnits="userSpaceOnUse">
      <stop offset="0" stop-color="#1fa3c7"/>
      <stop offset="0" stop-color="#1fa3c7"/>
      <stop offset="1" stop-color="#1f31d0"/>
    </linearGradient>
    <linearGradient id="Unbenannter_Verlauf_11" data-name="Unbenannter Verlauf 11" x1="95.4" y1="340.6" x2="1208.6" y2="-176.3" gradientTransform="translate(0 599.9) scale(1 -1)" gradientUnits="userSpaceOnUse">
      <stop offset="0" stop-color="#1d96b8"/>
      <stop offset="1" stop-color="#1f31d0"/>
    </linearGradient>
    <linearGradient id="Unbenannter_Verlauf_12" data-name="Unbenannter Verlauf 12" x1="91.2" y1="331.7" x2="1204.5" y2="-185.2" gradientTransform="translate(0 599.9) scale(1 -1)" gradientUnits="userSpaceOnUse">
      <stop offset="0" stop-color="#1d96b8"/>
      <stop offset="1" stop-color="#1f31d0"/>
    </linearGradient>
    <linearGradient id="Unbenannter_Verlauf_13" data-name="Unbenannter Verlauf 13" x1="86.8" y1="322.1" x2="1200.1" y2="-194.8" gradientTransform="translate(0 599.9) scale(1 -1)" gradientUnits="userSpaceOnUse">
      <stop offset="0" stop-color="#1d96b8"/>
      <stop offset="1" stop-color="#1f31d0"/>
    </linearGradient>
    <linearGradient id="Unbenannter_Verlauf_14" data-name="Unbenannter Verlauf 14" x1="82.7" y1="313.2" x2="1195.9" y2="-203.7" gradientTransform="translate(0 599.9) scale(1 -1)" gradientUnits="userSpaceOnUse">
      <stop offset="0" stop-color="#1d96b8"/>
      <stop offset="1" stop-color="#1f31d0"/>
    </linearGradient>
    <linearGradient id="Unbenannter_Verlauf_15" data-name="Unbenannter Verlauf 15" x1="78.2" y1="303.7" x2="1191.5" y2="-213.2" gradientTransform="translate(0 599.9) scale(1 -1)" gradientUnits="userSpaceOnUse">
      <stop offset="0" stop-color="#1d96b8"/>
      <stop offset="1" stop-color="#1f31d0"/>
    </linearGradient>
    <linearGradient id="Unbenannter_Verlauf_16" data-name="Unbenannter Verlauf 16" x1="74.1" y1="294.7" x2="1187.4" y2="-222.1" gradientTransform="translate(0 599.9) scale(1 -1)" gradientUnits="userSpaceOnUse">
      <stop offset="0" stop-color="#1d96b8"/>
      <stop offset="1" stop-color="#1f31d0"/>
    </linearGradient>
    <linearGradient id="Unbenannter_Verlauf_17" data-name="Unbenannter Verlauf 17" x1="69.7" y1="285.2" x2="1182.9" y2="-231.7" gradientTransform="translate(0 599.9) scale(1 -1)" gradientUnits="userSpaceOnUse">
      <stop offset="0" stop-color="#1d96b8"/>
      <stop offset="1" stop-color="#1f31d0"/>
    </linearGradient>
    <linearGradient id="Unbenannter_Verlauf_18" data-name="Unbenannter Verlauf 18" x1="66" y1="277.2" x2="1179.2" y2="-239.7" gradientTransform="translate(0 599.9) scale(1 -1)" gradientUnits="userSpaceOnUse">
      <stop offset="0" stop-color="#1d96b8"/>
      <stop offset="1" stop-color="#1f31d0"/>
    </linearGradient>
    <linearGradient id="Unbenannter_Verlauf_19" data-name="Unbenannter Verlauf 19" x1="199" y1="234.5" x2="875.5" y2="-73.5" gradientTransform="translate(0 599.9) scale(1 -1)" gradientUnits="userSpaceOnUse">
      <stop offset="0" stop-color="#197f9c"/>
      <stop offset="1" stop-color="#18259e"/>
    </linearGradient>
    <linearGradient id="Unbenannter_Verlauf_20" data-name="Unbenannter Verlauf 20" x1="172.4" y1="388.4" x2="842.6" y2="32.5" gradientTransform="translate(0 599.9) scale(1 -1)" gradientUnits="userSpaceOnUse">
      <stop offset="0" stop-color="#1fa3c7"/>
      <stop offset="0" stop-color="#1fa3c7"/>
      <stop offset="1" stop-color="#1f31d0"/>
    </linearGradient>
    <linearGradient id="Unbenannter_Verlauf_21" data-name="Unbenannter Verlauf 21" x1="232.2" y1="356.9" x2="738.4" y2="84.9" gradientTransform="translate(0 599.9) scale(1 -1)" gradientUnits="userSpaceOnUse">
      <stop offset="0" stop-color="#1d96b8"/>
      <stop offset="1" stop-color="#1f31d0"/>
    </linearGradient>
    <linearGradient id="Unbenannter_Verlauf_22" data-name="Unbenannter Verlauf 22" x1="255.9" y1="335.7" x2="969" y2="37.8" gradientTransform="translate(0 599.9) scale(1 -1)" gradientUnits="userSpaceOnUse">
      <stop offset="0" stop-color="#197f9c"/>
      <stop offset="1" stop-color="#18259e"/>
    </linearGradient>
    <linearGradient id="Unbenannter_Verlauf_23" data-name="Unbenannter Verlauf 23" x1="239.9" y1="409.2" x2="259.5" y2="398.9" gradientTransform="translate(0 599.9) scale(1 -1)" gradientUnits="userSpaceOnUse">
      <stop offset="0" stop-color="#c1e7ff"/>
      <stop offset="1" stop-color="#daf3ff"/>
    </linearGradient>
    <linearGradient id="Unbenannter_Verlauf_24" data-name="Unbenannter Verlauf 24" x1="239.4" y1="308.6" x2="265" y2="295" gradientTransform="translate(0 599.9) scale(1 -1)" gradientUnits="userSpaceOnUse">
      <stop offset="0" stop-color="#c1e7ff"/>
      <stop offset="1" stop-color="#daf3ff"/>
    </linearGradient>
    <linearGradient id="Unbenannter_Verlauf_25" data-name="Unbenannter Verlauf 25" x1="240.7" y1="311.1" x2="248" y2="307.3" gradientTransform="translate(0 599.9) scale(1 -1)" gradientUnits="userSpaceOnUse">
      <stop offset="0" stop-color="#c1e7ff"/>
      <stop offset="1" stop-color="#daf3ff"/>
    </linearGradient>
    <linearGradient id="Unbenannter_Verlauf_26" data-name="Unbenannter Verlauf 26" x1="139.1" y1="85.1" x2="167.5" y2="98.9" gradientTransform="translate(0 599.9) scale(1 -1)" gradientUnits="userSpaceOnUse">
      <stop offset="0" stop-color="#21b3d8"/>
      <stop offset="1" stop-color="#2134e2"/>
    </linearGradient>
    <linearGradient id="Unbenannter_Verlauf_27" data-name="Unbenannter Verlauf 27" x1="350.8" y1="88.1" x2="345.1" y2="94.7" gradientTransform="translate(-201.9 599.9) scale(1 -1)" gradientUnits="userSpaceOnUse">
      <stop offset="0" stop-color="#252646"/>
      <stop offset="1" stop-color="#242768"/>
    </linearGradient>
    <linearGradient id="Unbenannter_Verlauf_28" data-name="Unbenannter Verlauf 28" x1="333.2" y1="93.1" x2="345.3" y2="93.1" gradientTransform="translate(-201.9 599.9) scale(1 -1)" gradientUnits="userSpaceOnUse">
      <stop offset="0" stop-color="#d0a489"/>
      <stop offset="1" stop-color="#e5a880"/>
    </linearGradient>
    <linearGradient id="Unbenannter_Verlauf_29" data-name="Unbenannter Verlauf 29" x1="109.4" y1="77.9" x2="106.6" y2="51.8" gradientTransform="translate(0 599.9) scale(1 -1)" gradientUnits="userSpaceOnUse">
      <stop offset="0" stop-color="#20203c"/>
      <stop offset="1" stop-color="#242768"/>
    </linearGradient>
    <linearGradient id="Unbenannter_Verlauf_30" data-name="Unbenannter Verlauf 30" x1="110.1" y1="108.4" x2="129" y2="108.4" gradientTransform="translate(18.4 599.9) scale(1 -1)" gradientUnits="userSpaceOnUse">
      <stop offset="0" stop-color="#1f2a9e"/>
      <stop offset="1" stop-color="#2043bf"/>
    </linearGradient>
    <linearGradient id="Unbenannter_Verlauf_31" data-name="Unbenannter Verlauf 31" x1="118.7" y1="125.9" x2="207.3" y2="146.5" gradientTransform="translate(0 599.9) scale(1 -1)" gradientUnits="userSpaceOnUse">
      <stop offset="0" stop-color="#21b3d8"/>
      <stop offset="1" stop-color="#2134e2"/>
    </linearGradient>
    <linearGradient id="Unbenannter_Verlauf_32" data-name="Unbenannter Verlauf 32" x1="161.9" y1="73.6" x2="195.5" y2="86.5" gradientTransform="translate(0 599.9) scale(1 -1)" gradientUnits="userSpaceOnUse">
      <stop offset="0" stop-color="#21b3d8"/>
      <stop offset="1" stop-color="#2134e2"/>
    </linearGradient>
    <linearGradient id="Unbenannter_Verlauf_33" data-name="Unbenannter Verlauf 33" x1="355.9" y1="81.9" x2="368.1" y2="81.9" gradientTransform="translate(-201.9 599.9) scale(1 -1)" gradientUnits="userSpaceOnUse">
      <stop offset="0" stop-color="#d0a489"/>
      <stop offset="1" stop-color="#e5a880"/>
    </linearGradient>
    <linearGradient id="Unbenannter_Verlauf_34" data-name="Unbenannter Verlauf 34" x1="373.6" y1="76.9" x2="367.8" y2="83.6" gradientTransform="translate(-201.9 599.9) scale(1 -1)" gradientUnits="userSpaceOnUse">
      <stop offset="0" stop-color="#252646"/>
      <stop offset="1" stop-color="#242768"/>
    </linearGradient>
    <linearGradient id="Unbenannter_Verlauf_35" data-name="Unbenannter Verlauf 35" x1="376.7" y1="79.1" x2="372" y2="84.4" gradientTransform="translate(-201.9 599.9) scale(1 -1)" gradientUnits="userSpaceOnUse">
      <stop offset="0" stop-color="#252646"/>
      <stop offset="1" stop-color="#242768"/>
    </linearGradient>
    <linearGradient id="Unbenannter_Verlauf_36" data-name="Unbenannter Verlauf 36" x1="380" y1="80.9" x2="376" y2="85.5" gradientTransform="translate(-201.9 599.9) scale(1 -1)" gradientUnits="userSpaceOnUse">
      <stop offset="0" stop-color="#252646"/>
      <stop offset="1" stop-color="#242768"/>
    </linearGradient>
    <linearGradient id="Unbenannter_Verlauf_37" data-name="Unbenannter Verlauf 37" x1="121.3" y1="80.5" x2="119" y2="84.6" gradientTransform="translate(0 599.9) scale(1 -1)" gradientUnits="userSpaceOnUse">
      <stop offset="0" stop-color="#252646"/>
      <stop offset="1" stop-color="#242768"/>
    </linearGradient>
    <linearGradient id="Unbenannter_Verlauf_38" data-name="Unbenannter Verlauf 38" x1="123.6" y1="85.7" x2="105.4" y2="107.3" gradientTransform="translate(0 599.9) scale(1 -1)" gradientUnits="userSpaceOnUse">
      <stop offset="0" stop-color="#252646"/>
      <stop offset="1" stop-color="#242768"/>
    </linearGradient>
    <linearGradient id="Unbenannter_Verlauf_39" data-name="Unbenannter Verlauf 39" x1="333.2" y1="118.2" x2="409.7" y2="118.2" gradientTransform="translate(-201.9 599.9) scale(1 -1)" gradientUnits="userSpaceOnUse">
      <stop offset="0" stop-color="#21b3d8"/>
      <stop offset="1" stop-color="#2134e2"/>
    </linearGradient>
    <linearGradient id="Unbenannter_Verlauf_40" data-name="Unbenannter Verlauf 40" x1="365.4" y1="177" x2="397.2" y2="177" gradientTransform="translate(-201.9 599.9) scale(1 -1)" gradientUnits="userSpaceOnUse">
      <stop offset="0" stop-color="#d0a489"/>
      <stop offset="1" stop-color="#e5a880"/>
    </linearGradient>
    <linearGradient id="Unbenannter_Verlauf_41" data-name="Unbenannter Verlauf 41" x1="128.7" y1="218.2" x2="97.8" y2="207.2" gradientTransform="translate(0 599.9) scale(1 -1)" gradientUnits="userSpaceOnUse">
      <stop offset="0" stop-color="#d0a489"/>
      <stop offset="1" stop-color="#e5a880"/>
    </linearGradient>
    <linearGradient id="Unbenannter_Verlauf_42" data-name="Unbenannter Verlauf 42" x1="326.7" y1="221.7" x2="300.8" y2="251.4" gradientTransform="translate(-201.9 599.9) scale(1 -1)" gradientUnits="userSpaceOnUse">
      <stop offset="0" stop-color="#252646"/>
      <stop offset="1" stop-color="#242768"/>
    </linearGradient>
    <linearGradient id="Unbenannter_Verlauf_43" data-name="Unbenannter Verlauf 43" x1="271.8" y1="174.7" x2="350.4" y2="130" gradientTransform="translate(-201.9 599.9) scale(1 -1)" gradientUnits="userSpaceOnUse">
      <stop offset="0" stop-color="#e8eeff"/>
      <stop offset="1" stop-color="#b2d9e5"/>
    </linearGradient>
    <linearGradient id="Unbenannter_Verlauf_44" data-name="Unbenannter Verlauf 44" x1="90.5" y1="79" x2="94.7" y2="177.4" gradientTransform="translate(0 599.9) scale(1 -1)" gradientUnits="userSpaceOnUse">
      <stop offset="0" stop-color="#252646"/>
      <stop offset="1" stop-color="#242768"/>
    </linearGradient>
  </defs>
  <g>
    <path class="st10" d="M550.8,446.2c4.2,2.4,4.2,8.5,0,10.9l-132.2,76.3c-2.4,1.4-5.3,1.4-7.7,0l-217.6-125.7c-5.1-3-5.1-10.4,0-13.4l130.8-75.5c2-1.1,4.4-1.1,6.3,0l220.4,127.3Z"/>
    <path class="st0" d="M102.7,46.4s5.1-2.9,5.6-3.3c1.2-.8,2.9-.7,4.8.4l303.7,175.3c3.6,2.1,6.5,7.1,6.5,11.3l-.9,298.2c0,2.1-.7,3.5-1.9,4.2-.3.2-5.9,3.4-5.9,3.4L102.7,46.4Z"/>
    <path class="st1" d="M417.3,233.7l-.9,298.2c0,4.2-2.9,5.8-6.6,3.8L106.2,360.2c-3.6-2.1-6.5-7.1-6.5-11.3l.8-298.2c0-4.2,3-5.8,6.6-3.7l303.7,175.3c3.6,2.1,6.5,7.1,6.5,11.3Z"/>
    <path class="st3" d="M109.8,91.7c-.5,0-.9.4-.9,1.2l-.7,256.1c0,1,.7,2.3,1.6,2.8l13.5,7.8,107.4,62,12.1,7,4.6,2.7,142.1,82,4.6,2.7,12.1,7c.3.2.5.2.7.2.5,0,.9-.4.9-1.2l.7-256.1c0-1-.7-2.3-1.6-2.8L110.5,91.9c-.3-.2-.5-.2-.7-.2"/>
    <path class="st2" d="M123.9,113.4c-.2,0-.3.2-.3.4l-.3,121c0,.4.3.8.6,1l106.2,61.3c0,0,.2,0,.3,0,.2,0,.3-.2.3-.4l.3-121c0-.4-.3-.8-.6-1l-106.2-61.3c0,0-.2,0-.3,0"/>
    <path class="st7" d="M222.2,258.2c0,.3-.2.4-.5.3l-89.3-51.6c-.3-.2-.5-.5-.5-.9l.2-77.2c0-.3.2-.4.5-.3l89.3,51.6c.3.2.5.5.5.9l-.2,77.2h0Z"/>
    <path class="st5" d="M394.5,407.6l-.3,108.3-4.6-2.7-142.1-82-4.6-2.7.3-108.3c0-.5.3-.7.8-.4l149.8,86.5c.4.3.8.9.8,1.4Z"/>
    <path class="st6" d="M389.8,410.3v1.1s-.3,101.8-.3,101.8l-142.1-82,.3-101.5v-1.4c0-.5.3-.7.7-.4l1,.6,139.6,80.6c.1,0,.2.1.3.2.3.3.4.7.4,1Z"/>
    <path class="st4" d="M212.6,266.5c-.5,0-1-.1-1.4-.4l-71.2-41.1c-1.4-.8-1.8-2.5-1-3.9.8-1.4,2.5-1.8,3.9-1l71.2,41.1c1.4.8,1.8,2.5,1,3.9-.5.9-1.5,1.4-2.5,1.4Z"/>
    <path class="st8" d="M192.8,265.9c-.5,0-1-.1-1.4-.4l-51.4-29.7c-1.4-.8-1.8-2.5-1-3.9.8-1.4,2.5-1.8,3.9-1l51.4,29.7c1.4.8,1.8,2.5,1,3.9-.5.9-1.5,1.4-2.5,1.4Z"/>
    <path class="st44" d="M231,313.1l-.2,108.5-107.4-62,.2-108.5c0-.4.3-.5.6-.3l106.2,61.3c.3.2.6.6.6,1Z"/>
    <path class="st45" d="M212.6,320.6c-.5,0-1-.1-1.4-.4l-71.2-41.1c-1.4-.8-1.8-2.5-1-3.9.8-1.4,2.5-1.8,3.9-1l71.2,41.1c1.4.8,1.8,2.5,1,3.9-.5.9-1.5,1.4-2.5,1.4Z"/>
    <path class="st13" d="M212.6,331.4c-.5,0-1-.1-1.4-.4l-71.2-41.1c-1.4-.8-1.8-2.5-1-3.9.8-1.4,2.5-1.8,3.9-1l71.2,41.1c1.4.8,1.8,2.5,1,3.9-.5.9-1.5,1.4-2.5,1.4Z"/>
    <path class="st14" d="M212.6,343c-.5,0-1-.1-1.4-.4l-71.2-41.1c-1.4-.8-1.8-2.5-1-3.9.8-1.4,2.5-1.8,3.9-1l71.2,41.1c1.4.8,1.8,2.5,1,3.9-.5.9-1.5,1.4-2.5,1.4Z"/>
    <path class="st11" d="M212.6,353.9c-.5,0-1-.1-1.4-.4l-71.2-41.1c-1.4-.8-1.8-2.5-1-3.9.8-1.4,2.5-1.8,3.9-1l71.2,41.1c1.4.8,1.8,2.5,1,3.9-.5.9-1.5,1.4-2.5,1.4Z"/>
    <path class="st12" d="M212.6,365.5c-.5,0-1-.1-1.4-.4l-71.2-41.1c-1.4-.8-1.8-2.5-1-3.9.8-1.4,2.5-1.8,3.9-1l71.2,41.1c1.4.8,1.8,2.5,1,3.9-.5.9-1.5,1.4-2.5,1.4Z"/>
    <path class="st27" d="M212.6,376.3c-.5,0-1-.1-1.4-.4l-71.2-41.1c-1.4-.8-1.8-2.5-1-3.9.8-1.4,2.5-1.8,3.9-1l71.2,41.1c1.4.8,1.8,2.5,1,3.9-.5.9-1.5,1.4-2.5,1.4Z"/>
    <path class="st28" d="M212.6,387.9c-.5,0-1-.1-1.4-.4l-71.2-41.1c-1.4-.8-1.8-2.5-1-3.9.8-1.4,2.5-1.8,3.9-1l71.2,41.1c1.4.8,1.8,2.5,1,3.9-.5.9-1.5,1.4-2.5,1.4Z"/>
    <path class="st25" d="M192.8,387.3c-.5,0-1-.1-1.4-.4l-51.4-29.7c-1.4-.8-1.8-2.5-1-3.9.8-1.4,2.5-1.8,3.9-1l51.4,29.7c1.4.8,1.8,2.5,1,3.9-.5.9-1.5,1.4-2.5,1.4Z"/>
    <ellipse class="st9" cx="362.6" cy="217.6" rx="4.2" ry="7.3" transform="translate(-60.2 211.6) rotate(-30.2)"/>
    <path class="st9" d="M379.2,221.2c2.9,1.6,5.1,5.6,5.1,8.9,0,3.3-2.3,4.6-5.2,2.9-2.8-1.6-5.1-5.6-5.1-8.9,0-3.3,2.3-4.6,5.2-3Z"/>
    <path class="st9" d="M395.7,230.7c2.8,1.6,5.1,5.6,5.1,8.9,0,3.3-2.3,4.6-5.2,3-2.9-1.6-5.1-5.6-5.1-8.9,0-3.3,2.3-4.6,5.2-2.9Z"/>
    <path class="st9" d="M311.1,184.7c1.5.9,2.7,3,2.7,4.7,0,1.7-1.2,2.4-2.7,1.6l-104.4-60.3c-1.5-.9-2.7-3-2.7-4.7s1.2-2.4,2.7-1.6l104.4,60.3Z"/>
    <path class="st26" d="M389.8,411.4l-70.4,12.6,61.7,84.3-4.7-2.7-59.4-81.2-62.1,11.1-2.9-1.7,63.6-11.4-67.9-92.8v-1.4c0-.5.3-.7.7-.4l1,.6,68.5,93.6,71.4-12.8c.3.3.4.7.4,1v1.1Z"/>
    <g>
      <path class="st15" d="M443.5,420.3c0,.5-.4.7-.8.4l-149.8-86.5c-.4-.2-.8-.9-.8-1.4l.3-122.5c0-.5.4-.7.8-.4l149.8,86.5c.4.2.8.9.8,1.4l-.3,122.5h0Z"/>
      <path class="st16" d="M438.8,413.3c0,.5-.3.7-.7.4l-140.6-81.2c-.4-.2-.7-.8-.7-1.3l.3-112.8c0-.5.3-.7.7-.4l140.6,81.2c.4.2.7.8.7,1.3l-.3,112.8h0Z"/>
      <path class="st21" d="M382.5,329.4l-23.9,6.6c-1.5.4-3.3,0-4.9-1-4.3-2.5-8.3-8.7-8.3-14.4v-40.6c.1-5.7,4.2-7.3,8.5-4.8,1.7,1,3.4,2.5,4.9,4.8l23.7,34.1c4.5,6.4,4.5,14.1,0,15.4Z"/>
    </g>
    <path class="st22" d="M261.5,190.7v6.6l-10.1-5.8-1-.6v17.5s-5.7-3.7-5.7-3.7v-5.6s0-17.2,0-17.2c0-.5.4-.7.8-.4l9.7,5.6,6.3,3.6Z"/>
    <path class="st23" d="M260,308.1v6.2l-14.9-8.6c-.4-.2-.8-.8-.8-1.3v-4.1s0-.8,0-.8v-17.5s5.7,3.4,5.7,3.4v16.2s0,.7,0,.7l10,5.8Z"/>
    <polygon class="st24" points="244.4 281.9 244.4 299.5 244.4 281.9 244.4 281.9"/>
  </g>
  <g>
    <path class="st10" d="M226.1,482.1l-5.5,2.7c1,2.2,0,4.9-2.2,5.9l-2,.9c-1.2.6-2.5.8-3.9.8-1.3,0-3.2.1-5.1,1l4.5,2.6c2.3,1.4,2.3,4.7,0,6.1l-26.8,15.5,4.2,2.5c2.3,1.3,3,4.8,0,5.9,0,0-6,2-14.8,9.7l-5.1,4c-3.7,2.2-8.4,2.2-12.1,0l-5.2-3-35.8,20.7-38.9-22.4,98.2-56.8c1.6-.9,3.6-.9,5.3,0l19.7,11.4c6.4-3.8,15.7-8.9,23.8-11.4.2,0,.4-.1.6-.1.9,0,1.7.6,2.1,1.5.3,1,0,2.2-1.1,2.6Z"/>
    <path class="st10" d="M146,526.1l-20.6,11.9,8.2,4.7,20.1-11.6c.5-.3.5-1,0-1.3l-6.5-3.8c-.3-.2-.8-.2-1.1,0Z"/>
    <path class="st9" d="M161.7,507.3v4.1h0c0,0,0,0,0,0,0,.8-.4,1.7-1.3,2.2-2.9,1.7-7.7,4.6-12.5,8.5-7.9,6.4-11.4,6.5-15.9,3.5-1.5-1-2.5-2.9-2.5-4.1h0v-4.9l32.1-9.3Z"/>
    <path class="st17" d="M131.2,510s-4.3,8.6.8,11.6c4.6,2.7,8,2.8,15.9-3.5,4.8-3.9,9.6-6.8,12.5-8.5,1.8-1,1.7-3.6-.2-4.4-1.5-.6-3.5-.9-6.3,0-7.2,2.1-6.9,2.4-10.5,2.5l-12.2,2.5Z"/>
    <path class="st18" d="M147.7,512.5c-.3,0-.5-.1-.7-.3-1.5-1.5-1.9-3.7-2-4.9,0-.6.4-1.1.9-1.1.6,0,1.1.4,1.1.9,0,.9.4,2.5,1.4,3.6.4.4.4,1.1,0,1.5-.2.2-.5.3-.7.3Z"/>
    <path class="st19" d="M131.2,499.7h0v10.2c0,1,.5,2,1.4,2.6,1,.6,2.5,1.3,4.7,1.3s4.3-1.3,5.3-2.2c.6-.6.8-1.4.8-2.2v-9.4l-12.2-.4Z"/>
    <path class="st20" d="M141.2,501.2v32l-33.4,19.3-29.4-17v-33.2s62.7-1.3,62.8-1.2Z"/>
    <path class="st32" d="M147.4,479.7c-.3,10.8-.1,18.2-.1,18.2,0,0-.3,5.3-11.2,5.3s-4.3-.6-5.5-1.3c-1.3-.8-2.1-2.4-2.1-4v-6.9l18.9-11.3Z"/>
    <path class="st30" d="M128.5,491v-9.2l-21.2,22.5-6.6-2.2c-11.6-.6-16.9-12.3-16.3-17.8.4-7.6,6.4-11.2,6.4-11.2l41.2-28.9c7.1-5.6,17.5,0,16.8,9h0c-.8,9.6-1.1,18.9-1.3,26.5l-18.9,11.3Z"/>
    <path class="st9" d="M184.4,518.5v4.1h0c0,0,0,0,0,0,0,.8-.4,1.7-1.3,2.2-2.9,1.7-7.7,4.6-12.5,8.5-7.9,6.4-11.4,6.5-15.9,3.5-1.5-1-2.5-2.9-2.5-4.1h0v-4.9l32.1-9.3Z"/>
    <path class="st35" d="M154,521.1s-4.3,8.6.8,11.6c4.6,2.7,8,2.8,15.9-3.5,4.8-3.9,9.6-6.8,12.5-8.5,1.8-1,1.7-3.6-.2-4.4-1.5-.6-3.5-.9-6.3,0-7.2,2.1-6.9,2.4-10.5,2.5l-12.2,2.5Z"/>
    <path class="st36" d="M166.1,511.3v9.4c0,.8-.3,1.6-.8,2.2-.9,1-2.6,2.2-5.3,2.2s-3.7-.7-4.7-1.3c-.9-.6-1.4-1.6-1.4-2.6v-10.2l12.2.4Z"/>
    <path class="st34" d="M170.4,523.7c-.3,0-.5-.1-.7-.3-1.4-1.5-1.9-3.4-2-4.9,0-.6.4-1.1.9-1.1.6,0,1.1.4,1.1.9,0,.9.4,2.5,1.4,3.6.4.4.4,1.1,0,1.5-.2.2-.5.3-.7.3Z"/>
    <path class="st37" d="M173.8,521.3c-.3,0-.5-.1-.7-.3-.8-.8-1.4-2-1.8-3.3-.1-.5.2-1.1.7-1.2.5-.1,1.1.2,1.2.7.3,1,.7,1.8,1.2,2.4.4.4.4,1.1,0,1.5-.2.2-.5.3-.7.3Z"/>
    <path class="st31" d="M177.2,519.3c-.3,0-.5-.1-.7-.3-.6-.6-1.1-1.4-1.5-2.3-.2-.5,0-1.1.6-1.3.5-.2,1.1,0,1.3.6.3.7.6,1.2,1,1.6.4.4.4,1.1,0,1.5-.2.2-.5.3-.7.3Z"/>
    <path class="st29" d="M149.5,499.7s0,2.9,0,3.1c0,.6-.3,1.2-.9,1.5l-34.8,20.1c-1.3.7-2.9.7-4.1,0l-36.3-21c-1.2-.7-1.2-2.4,0-3.1l35.3-20.4,40.9,19.7Z"/>
    <path class="st43" d="M73.3,497.3l35.3-20.4c1.3-.8,2.9-.7,4.2,0l35.8,21.3c1.2.7,1.2,2.4,0,3.1l-34.8,20.1c-1.3.7-2.9.7-4.1,0l-36.3-21c-1.2-.7-1.2-2.4,0-3.1Z"/>
    <path class="st33" d="M155.3,453.3c7.1-5.5,17.5,0,16.8,9,0,0,0,0,0,0-1.8,22.9-1.5,44.6-1.5,44.6,0,0-.3,5.3-11.2,5.3s-4.4-.6-5.5-1.3c-1.3-.8-2.1-2.4-2.1-3.9v-23l-25.9,20.2c-16.4,8.6-31.4-3.2-30.4-12.5,0-.1,0-.2,0-.3,1.3-7.1,7.5-8.6,7.5-8.6l52.1-29.4Z"/>
    <path class="st38" d="M168.6,433c1.6-1.3,3.3-2.5,5.2-3.8,2.4-1.6,5-1.8,6.7-1.8,1.3,0,2.6-.2,3.9-.8l2-.9c2.2-1,3.2-3.7,2.2-5.9l5.5-2.7c1-.5,1.4-1.6,1.1-2.6-.3-.9-1.1-1.5-2-1.5s-.4,0-.6.1c-10.7,3.3-23.7,11.1-28.9,14.6h0l5.1,5.4Z"/>
    <path class="st39" d="M127.5,363.4c2.7,4.6,1.4,10.4,1.8,12.7.3,1.8,1.8,4,2.6,5.1.3.4.3.9,0,1.4-.7,1.1-1.8,2.3-2.4,2.9-.2.2-.2.4-.1.6.4,1.1,1.2,4.3-.9,6.7-2.5,2.8-8.1,1.1-8.1,1.1-1.3,5.3,0,9.2,0,9.2h0c-8.3,8.1-22.1.5-19.6-10.9v-.3c0,0,1.6-3.8,1.6-3.8l20.3-23.7,4.7-.9Z"/>
    <path class="st41" d="M122.1,375.5v2.3c0,1.7-1.4,3-3,3h-.1c-1.4,0-2.7,1-3,2.4-.6,2.8-2.5,7-8,7s-10.4-9.5-10.8-13.9c-1.2-13.6,2.6-16.9,16.3-20.8,8.7-2.5,12.2-5.8,13.7-7.9.5-.8,1.7-.6,2,.3.6,1.6,1.2,4.2,1.2,7.5,0,17.5-8.2,9-8.2,20.1Z"/>
    <path class="st40" d="M168.5,434.7c-1.4,3.2-3.3,2.6-6.3,5.4-.2.2-.4.4-.6.6-6.1,6.5-9.3,10.7-13.2,10.5-10.3-.5-16.3-13-18.5-18.6-.2-.5-1-.4-1,.2v41c0,31.8-15.2,26.6-25.9,21.6-5.3-2.5-21.2-6.5-17.8-23.4,3.3-16.9,5.1-26.1,2.1-40.9-3-14.8-7.6-22.7-1.9-33,5.7-10.4,15.6-6.2,15.6-6.2,0,0-.2,5.5,7,10,6.6,4.2,12.5,1.2,12.5,1.2,0,0,14.4,3,21.3,17.1,5.3,10.9,7.1,13.4,9,15h0c1.2-.6,3.6-1.9,6.2-3.3,0,0,0,0,0,0,3.1-1.9,2.7-5.1,4.8-4.8,2.1.4,8.1,4.3,6.6,7.8Z"/>
    <path class="st42" d="M72.1,418.4v82.9c0,.8.5,1.6,1.2,2.1l36.3,21c1.6.9,3.6-.2,3.6-2.1v-81.7c0-1.5-.8-2.9-2.1-3.7l-35.4-20.5c-1.6-.9-3.5.2-3.5,2Z"/>
  </g>
</svg>