<?xml version="1.0" encoding="utf-8"?>
<!-- Generator: Adobe Illustrator 27.5.0, SVG Export Plug-In . SVG Version: 6.00 Build 0)  -->
<svg version="1.1" id="Layer_2" xmlns="http://www.w3.org/2000/svg" xmlns:xlink="http://www.w3.org/1999/xlink" x="0px" y="0px"
	 viewBox="0 0 1000 1000" style="enable-background:new 0 0 1000 1000;" xml:space="preserve">
<g>
	<path style="fill:#90CAF9;" d="M767.49,708.16c-11.13,15.35-25.63,29.439-44.07,41.38c-49.479,32.05-102.479,38.12-152.12,35.58
		c-33.56-1.71-65.59-7.351-93.95-11.55c-3.55-0.53-7.05-1.03-10.48-1.5c-29.23-4-60.41,2.519-90.78,6.239
		c-2.71,0.33-5.41,0.641-8.1,0.921c-2.9,0.309-5.79,0.569-8.66,0.779c-0.36,0.03-0.72,0.05-1.08,0.08
		c-1.25,0.09-2.48,0.17-3.72,0.231c-2.08,0.12-4.16,0.199-6.221,0.25c-2.819,0.069-5.609,0.08-8.399,0.01
		c-2.88-0.07-5.74-0.22-8.59-0.46c-4.59-0.38-9.12-1.01-13.59-1.93c-11.37-2.341-22.311-6.58-32.631-13.61
		c-3.93-2.67-7.77-5.74-11.51-9.271c-2.27-2.14-4.51-4.449-6.7-6.939c-3.04-3.42-5.989-7.18-8.87-11.311
		c-1.55-2.229-3.05-4.449-4.489-6.659c-1.08-1.65-2.13-3.29-3.141-4.931c-0.09-0.149-0.189-0.3-0.279-0.45
		c-1.29-2.079-2.53-4.149-3.71-6.199c-0.061-0.101-0.12-0.19-0.17-0.29c-3.761-6.52-7.051-12.931-9.91-19.23
		c-0.011-0.01-0.011-0.02-0.011-0.02c-7.42-16.32-12.029-31.95-14.73-46.971c-13.27-73.81,19.58-133.109-6.89-187.58
		c-0.561-1.14-1.141-2.29-1.75-3.43c-16.36-30.62-24.41-61.02-25.08-88.56c-1.521-61.63,33.88-108.94,95.72-112.3
		c12.86-0.7,24.83-1.59,35.99-2.66c16.41-1.56,31.069-3.5,44.25-5.75c10.13-1.72,19.39-3.62,27.89-5.67c0.01,0,0.01-0.01,0.01-0.01
		c4.351-1.04,8.511-2.13,12.48-3.25c1.189-0.34,2.37-0.68,3.53-1.03c39.02-11.53,60.149-26.43,80.199-40.34
		c10.82-7.51,21.32-14.72,34.15-20.96c3.55-1.74,7.28-3.39,11.24-4.95c9.8-3.87,21.029-7.19,34.55-9.75
		c4.96-0.94,9.89-1.57,14.79-1.91h0.01c3.91-0.27,7.79-0.36,11.65-0.27c3.94,0.08,7.84,0.36,11.699,0.8c1.25,0.15,2.5,0.31,3.74,0.5
		c0.83,0.11,1.65,0.24,2.471,0.37c3.369,0.56,6.699,1.25,9.989,2.06c4.34,1.06,8.61,2.34,12.811,3.81
		c13.739,4.83,26.689,11.77,38.529,20.29c6.681,4.8,13,10.1,18.91,15.8c2.59,2.5,5.101,5.08,7.52,7.72
		c0.779,0.84,1.54,1.69,2.29,2.54c0.05,0.06,0.1,0.12,0.16,0.17c2.439,2.78,4.79,5.62,7.029,8.53c3.37,4.33,6.52,8.81,9.431,13.38
		c1.33,2.1,2.619,4.23,3.85,6.37c3.83,6.63,7.17,13.45,9.95,20.37c1.359,3.34,2.58,6.71,3.67,10.08
		c2.269,7.06,3.97,14.18,5.03,21.27c1.739,11.47,1.81,22.86,0,33.8c-0.03,0.21-0.061,0.41-0.101,0.62c-0.45,2.6-1.01,5.17-1.67,7.71
		c-5.1,19.54-6.939,37.23-6.41,53.65c0.02,0.76,0.05,1.52,0.09,2.27c0.021,0.53,0.051,1.06,0.08,1.59
		c0.04,0.71,0.08,1.43,0.141,2.13c0.109,1.73,0.25,3.43,0.42,5.13c0.25,2.52,0.55,5,0.91,7.46c0.159,1.08,0.319,2.16,0.5,3.23
		c0.019,0.13,0.04,0.25,0.06,0.37c0.12,0.73,0.25,1.46,0.38,2.18c1.21,6.76,2.8,13.33,4.69,19.77c0.21,0.74,0.43,1.48,0.66,2.21
		c0.08,0.25,0.149,0.5,0.22,0.74c0.019,0.03,0.019,0.06,0.03,0.08c1.13,3.64,2.35,7.24,3.649,10.8c2.98,8.16,6.38,16.15,10.03,24.08
		c1.88,4.1,3.83,8.18,5.82,12.26c0.02,0.03,0.04,0.07,0.06,0.11c6.66,13.629,13.809,27.27,20.57,41.47
		C803.75,576.29,808.96,650.99,767.49,708.16z"/>
	<path style="fill:#42A5F5;" d="M849.33,527.5c0.01,69.63-28.19,144.5-81.84,180.66c-20.57,13.87-44.891,22.04-72.79,22.04
		c-0.79,0-1.58,0-2.351,0.01c-3.409,0.01-6.68,0.05-9.81,0.12c-3.94,0.09-7.66,0.229-11.19,0.41c-5.85,0.31-11.159,0.74-16.02,1.319
		c-43.43,5.141-51.29,21.311-84.03,53.061c-3.229,3.14-6.71,6.43-10.479,9.87c-12.38,11.3-25.511,20.109-39.021,26.74
		c-49.069,24.079-103.27,19.38-145.72,0.449c-2.9-1.29-5.74-2.649-8.521-4.069c-1.79-0.91-3.55-1.851-5.29-2.811
		c-1.529-0.85-3.05-1.72-4.539-2.609c-3.86-2.29-7.561-4.7-11.11-7.21c-1.351-0.961-2.69-1.941-3.99-2.921
		c-1.899-1.449-3.75-2.92-5.54-4.409c-1.99-1.66-3.91-3.36-5.76-5.091c-5.09-4.739-9.65-9.72-13.6-14.869
		c-4.091-5.32-7.521-10.82-10.2-16.421c-1.311-2.72-2.431-5.46-3.38-8.22c-0.36-1.06-0.7-2.13-1.011-3.2
		c-0.83-2.869-1.46-5.76-1.87-8.649c-0.109-0.75-0.22-1.49-0.34-2.21v-0.01c-0.56-3.421-1.25-6.61-2.069-9.61
		c-0.95-3.521-2.08-6.76-3.36-9.79c-1.01-2.37-2.12-4.61-3.32-6.72c-5.06-8.95-11.739-15.79-19.569-22.101
		c-1.66-1.35-3.37-2.67-5.13-3.98c-2.15-1.601-4.36-3.19-6.641-4.8c-1.92-1.341-3.88-2.711-5.89-4.101c-1.59-1.1-3.2-2.22-4.84-3.38
		c-1.28-0.89-2.57-1.81-3.88-2.75c-3.23-2.31-6.54-4.75-9.91-7.38c0,0,0,0-0.011-0.01c-4.81-3.74-9.739-7.87-14.73-12.551
		c-2.811-2.64-5.65-5.449-8.49-8.47c-14.939-15.859-30.16-37.45-44.27-69.37c-33.63-76.07-16.58-150.38,19.04-201.73
		c20.67-29.8,47.59-51.88,74.47-62.07c25.68-9.74,42.5-30.2,57.24-52.89c27.279-42.01,47.42-91.7,103.5-95.22
		c5.279-0.33,10.34-0.54,15.17-0.63c19.55-0.37,35.56,1.17,48.91,4.22c2.89,0.66,5.659,1.39,8.31,2.19c2.79,0.84,5.46,1.76,8,2.75
		c1.97,0.76,3.87,1.56,5.7,2.41c0.3,0.14,0.59,0.27,0.89,0.42c1.771,0.83,3.49,1.71,5.141,2.62v0.01
		c0.96,0.53,1.909,1.07,2.829,1.62c1.391,0.84,2.75,1.71,4.061,2.6c0.42,0.28,0.83,0.57,1.25,0.86c4.38,3.08,8.31,6.45,11.91,10.04
		c2.92,2.91,5.62,5.98,8.18,9.16c9.45,11.8,16.84,25.28,25.4,39.01c1.899,3.02,3.84,6.07,5.88,9.1c0.069,0.12,0.149,0.23,0.229,0.35
		c4.141,6.15,8.66,12.27,13.84,18.25c1.771,2.04,3.62,4.06,5.551,6.06c0.54,0.56,1.09,1.12,1.649,1.68c0.84,0.85,1.7,1.69,2.59,2.53
		v0.01c1.32,1.26,2.69,2.5,4.101,3.74c2.25,1.98,4.609,3.94,7.1,5.85c1.05,0.82,2.12,1.62,3.221,2.41
		c2.909,2.12,5.989,4.19,9.239,6.2c2.25,1.39,4.58,2.76,7.011,4.09c1.88,1.04,3.809,2.06,5.8,3.06c6.2,3.1,12.95,6.02,20.34,8.72
		c3.88,1.42,7.93,2.77,12.16,4.06c12.31,3.75,26.189,6.94,41.939,9.44c0.721,0.12,1.44,0.23,2.17,0.34
		c2.46,0.38,4.88,0.79,7.261,1.23c4.77,0.88,9.369,1.89,13.8,3.02c2.939,0.74,5.8,1.54,8.6,2.39c0.03,0.01,0.07,0.02,0.101,0.03
		C834.11,360.56,849.31,444.23,849.33,527.5z"/>
</g>
<g>
	<path style="fill:#FFFFFF;" d="M685.685,250.605c0-1.737-1.408-2.336-3.146-1.336l-56.615,32.547
		c-1.738,0.999-3.146,3.217-3.146,4.954l0,0c0,1.736,1.407,2.335,3.146,1.336l56.615-32.547
		C684.276,254.559,685.685,252.341,685.685,250.605L685.685,250.605z"/>
	<g>
		<path style="fill:#CFD8DC;" d="M690.787,464.538c0,7.984-5.653,17.789-12.564,21.789L206.966,759.069
			c-6.911,3.998-12.564,0.736-12.564-7.246V459.569c0-7.984,5.653-17.788,12.564-21.788L678.223,165.04
			c6.911-4,12.564-0.739,12.564,7.245V464.538z"/>
		<g>
			<path style="fill:#42A5F5;" d="M709.473,477.704c0,7.984-5.653,17.789-12.565,21.789L225.651,772.235
				c-6.911,3.998-12.564,0.736-12.564-7.246V472.735c0-7.984,5.653-17.788,12.564-21.788l471.257-272.741
				c6.911-4,12.565-0.739,12.565,7.245V477.704z"/>
			<polygon style="fill:#42A5F5;" points="705.638,177.259 729.096,190.696 710.734,206.32 702.266,203.538 695.551,190.049 			"/>
			<polygon style="fill:#42A5F5;" points="216.482,772.905 240.061,786.44 263.101,768.032 246.679,748.161 225.356,749.433 			"/>
			<path style="fill:#42A5F5;" d="M732.7,198.76v292.25c0,5.35-2.54,11.521-6.29,16.21c-0.28,0.34-0.55,0.67-0.83,0.99
				c-0.01,0.01-0.01,0.01-0.01,0.01c-0.37,0.41-0.74,0.82-1.13,1.2c-1.341,1.35-2.79,2.5-4.301,3.38l-3.22,1.86l-0.59,0.34
				l-0.01,0.01l-1.801,1.04l-13.529,7.83L384.62,706.981l-24.13,13.96v0.01l-2.21,1.27L336.31,734.94L304.15,753.55L285.1,764.58
				l-20.119,11.64l-16.101,9.32c-3.42,1.979-6.54,2.18-8.81,0.89c-0.08-0.029-0.16-0.08-0.23-0.12c-0.399-0.25-0.76-0.54-1.1-0.869
				c-0.34-0.341-0.65-0.721-0.92-1.15c-0.41-0.64-0.75-1.37-0.99-2.2c-0.34-1.109-0.52-2.38-0.52-3.8V486.04
				c0-5.49,2.681-11.84,6.591-16.57c0.54-0.64,1.1-1.26,1.67-1.84c1.34-1.35,2.8-2.51,4.31-3.38l339.89-196.71l103.7-60.02
				l9.15-5.29l7.85-4.55l10.67-6.17c3.5-2.03,6.681-2.19,8.96-0.81C731.32,192.03,732.7,194.82,732.7,198.76z"/>
		</g>
		<path style="fill:#FFFFFF;" d="M732.7,198.76v292.25c0,5.35-2.54,11.521-6.29,16.21c-0.271,0.34-0.55,0.67-0.83,0.99
			c-0.01,0.01-0.01,0.01-0.01,0.01c-0.37,0.41-0.74,0.82-1.13,1.2c-1.341,1.35-2.79,2.5-4.301,3.38l-3.22,1.86l-0.59,0.34
			l-0.01,0.01l-1.801,1.04l-13.529,7.83v0.01L384.62,706.981l-24.13,13.96v0.01l-2.21,1.27L336.31,734.94L304.15,753.55
			L285.1,764.58l-20.119,11.64l-16.101,9.32c-3.42,1.979-6.54,2.18-8.81,0.89c-0.08-0.029-0.16-0.08-0.23-0.12
			c-0.399-0.25-0.76-0.54-1.1-0.869c-0.33-0.341-0.641-0.721-0.92-1.15c-0.41-0.64-0.74-1.38-0.99-2.2
			c-0.33-1.109-0.51-2.37-0.51-3.79V486.05c0-5.49,2.67-11.85,6.58-16.58c0.54-0.64,1.1-1.26,1.67-1.84
			c1.34-1.34,2.8-2.49,4.31-3.37l339.89-196.72l103.7-60.02l9.15-5.29l7.85-4.54v-0.01l10.67-6.17c3.5-2.03,6.681-2.19,8.96-0.81
			C731.32,192.03,732.7,194.82,732.7,198.76z"/>
		<polygon style="fill:#1976D2;" points="243.261,522.485 726.188,244.245 721.833,202.63 245.681,477.483 		"/>
		<defs>
			<filter id="Adobe_OpacityMaskFilter" filterUnits="userSpaceOnUse" x="250.11" y="210.77" width="599.22" height="627.353">
				<feFlood  style="flood-color:white;flood-opacity:1" result="back"/>
				<feBlend  in="SourceGraphic" in2="back" mode="normal"/>
			</filter>
		</defs>
		<mask maskUnits="userSpaceOnUse" x="250.11" y="210.77" width="599.22" height="627.353" id="SVGID_1_">
			<g style="filter:url(#Adobe_OpacityMaskFilter);">
				<defs>
					
						<filter id="Adobe_OpacityMaskFilter_00000007399419592565059920000014319100955876898184_" filterUnits="userSpaceOnUse" x="250.11" y="210.77" width="599.22" height="627.353">
						<feFlood  style="flood-color:white;flood-opacity:1" result="back"/>
						<feBlend  in="SourceGraphic" in2="back" mode="normal"/>
					</filter>
				</defs>
				<mask maskUnits="userSpaceOnUse" x="250.11" y="210.77" width="599.22" height="627.353" id="SVGID_1_">
					<g style="filter:url(#Adobe_OpacityMaskFilter_00000007399419592565059920000014319100955876898184_);">
					</g>
				</mask>
				
					<linearGradient id="SVGID_00000026879588125332219000000015158856710213063324_" gradientUnits="userSpaceOnUse" x1="192.6715" y1="269.792" x2="677.1484" y2="623.7759">
					<stop  offset="0" style="stop-color:#FFFFFF"/>
					<stop  offset="0.1318" style="stop-color:#E4E4E4"/>
					<stop  offset="0.4158" style="stop-color:#9E9E9E"/>
					<stop  offset="0.8265" style="stop-color:#303030"/>
					<stop  offset="1" style="stop-color:#000000"/>
				</linearGradient>
				<path style="mask:url(#SVGID_1_);fill:url(#SVGID_00000026879588125332219000000015158856710213063324_);" d="M849.33,527.5
					c0.01,69.63-28.19,144.5-81.84,180.66c-11.13,15.35-25.63,29.439-44.07,41.38c-49.479,32.05-102.479,38.12-152.12,35.58
					c-3.229,3.14-6.71,6.43-10.479,9.87c-12.38,11.3-25.511,20.109-39.021,26.74c-49.069,24.079-103.27,19.38-145.72,0.449
					c-1.5,0.801-2.65,1.4-3.17,1.67c-2.351,1.21-3.5,4.9-10.101,3.07c-6.47-1.79-4.17-9.979-4.069-10.33v-0.01
					c-0.54-0.29-0.86-0.59-0.88-0.88c-0.061-0.82-0.101-1.83-0.13-3.01c-3.86-2.29-7.561-4.7-11.11-7.21
					c-0.69,0.449-1.26,0.819-1.66,1.069c-1.81,1.141-4.03,7.351-10.1,5.061c-5.471-2.07-3.5-8.591-3.04-9.891
					c-0.23-2.239-0.4-5.21-0.49-8.66c-5.09-4.739-9.65-9.72-13.6-14.869c-11.37-2.341-22.311-6.58-32.631-13.61l-20.119,11.64
					l-4.681-5.95l-5.58-7.109l-2.84-3.61c0,0-0.55-0.78-1-1.91c-0.06-0.17-0.12-0.34-0.18-0.51c-0.44-1.38-0.59-4.1-0.59-4.1V485.01
					c0,0,0-2.15,1.84-5.27c1.609-2.75,3.8-4.35,3.8-4.35l337.731-194.64l5.079-2.93l103.881-59.87l7.029-4.05l2.71-1.56l0.141-0.08
					l0.229-0.02l1.99-0.14l8.22-0.6l9.94-0.73v55.83c1.359,3.34,2.58,6.71,3.67,10.08c2.92-0.48,5.03,1.53,5.03,5.31v15.96
					c1.739,11.47,1.81,22.86,0,33.8v0.65C834.11,360.56,849.31,444.23,849.33,527.5z"/>
			</g>
		</mask>
		
			<linearGradient id="SVGID_00000052803515724770983560000007263906516968866978_" gradientUnits="userSpaceOnUse" x1="192.6715" y1="269.792" x2="677.1484" y2="623.7759">
			<stop  offset="0" style="stop-color:#E3F2FD"/>
			<stop  offset="1" style="stop-color:#E3F2FD"/>
		</linearGradient>
		<path style="fill:url(#SVGID_00000052803515724770983560000007263906516968866978_);" d="M849.33,527.5
			c0.01,69.63-28.19,144.5-81.84,180.66c-11.13,15.35-25.63,29.439-44.07,41.38c-49.479,32.05-102.479,38.12-152.12,35.58
			c-3.229,3.14-6.71,6.43-10.479,9.87c-12.38,11.3-25.511,20.109-39.021,26.74c-49.069,24.079-103.27,19.38-145.72,0.449
			c-1.5,0.801-2.65,1.4-3.17,1.67c-2.351,1.21-3.5,4.9-10.101,3.07c-6.47-1.79-4.17-9.979-4.069-10.33v-0.01
			c-0.54-0.29-0.86-0.59-0.88-0.88c-0.061-0.82-0.101-1.83-0.13-3.01c-3.86-2.29-7.561-4.7-11.11-7.21
			c-0.69,0.449-1.26,0.819-1.66,1.069c-1.81,1.141-4.03,7.351-10.1,5.061c-5.471-2.07-3.5-8.591-3.04-9.891
			c-0.23-2.239-0.4-5.21-0.49-8.66c-5.09-4.739-9.65-9.72-13.6-14.869c-11.37-2.341-22.311-6.58-32.631-13.61l-20.119,11.64
			l-4.681-5.95l-5.58-7.109l-2.84-3.61c0,0-0.55-0.78-1-1.91c-0.06-0.17-0.12-0.34-0.18-0.51c-0.44-1.38-0.59-4.1-0.59-4.1V485.01
			c0,0,0-2.15,1.84-5.27c1.609-2.75,3.8-4.35,3.8-4.35l337.731-194.64l5.079-2.93l103.881-59.87l7.029-4.05l2.71-1.56l0.141-0.08
			l0.229-0.02l1.99-0.14l8.22-0.6l9.94-0.73v55.83c1.359,3.34,2.58,6.71,3.67,10.08c2.92-0.48,5.03,1.53,5.03,5.31v15.96
			c1.739,11.47,1.81,22.86,0,33.8v0.65C834.11,360.56,849.31,444.23,849.33,527.5z"/>
		<path style="fill:#FFFFFF;" d="M536.708,336.755c0-1.737-1.408-2.336-3.146-1.336l-56.616,32.548
			c-1.738,0.999-3.145,3.216-3.145,4.953l0,0c0,1.736,1.407,2.336,3.145,1.337l56.616-32.547
			C535.3,340.71,536.708,338.492,536.708,336.755L536.708,336.755z"/>
		<path style="fill:#FFFFFF;" d="M611.83,293.248c0-1.737-1.408-2.335-3.146-1.336l-56.615,32.547
			c-1.738,0.998-3.146,3.216-3.146,4.953l0,0c0,1.737,1.407,2.335,3.146,1.337l56.615-32.547
			C610.422,297.202,611.83,294.984,611.83,293.248L611.83,293.248z"/>
		<path style="fill:#FFFFFF;" d="M334.324,449.758c0,5.234-4.243,11.928-9.478,14.952l-46.064,26.605
			c-5.235,3.023-9.479,1.23-9.479-4.006l0,0c0-5.234,4.243-11.93,9.479-14.951l46.064-26.606
			C330.081,442.728,334.324,444.522,334.324,449.758L334.324,449.758z"/>
		<path style="fill:#64B5F6;" d="M729.1,190.7c-2.279-1.38-5.46-1.22-8.96,0.81l-10.67,6.17v0.01l-7.85,4.54l-9.15,5.29
			l-103.7,60.02L248.88,464.26c-1.51,0.88-2.97,2.03-4.31,3.37c-0.57,0.58-1.13,1.2-1.67,1.84c-3.91,4.73-6.58,11.09-6.58,16.58
			V778.3c0,1.42,0.18,2.681,0.51,3.79c0.25,0.82,0.58,1.561,0.99,2.2c0.279,0.43,0.59,0.81,0.92,1.15
			c0.34,0.329,0.7,0.619,1.1,0.869c0.07,0.04,0.15,0.091,0.23,0.12c2.27,1.29,5.39,1.09,8.81-0.89l16.101-9.32l20.119-11.64
			l19.051-11.03l32.159-18.609l21.971-12.721l2.21-1.27v-0.01l24.13-13.96L700.99,523.89v-0.01l13.529-7.83l1.801-1.04l0.01-0.01
			l0.59-0.34l3.22-1.86c1.511-0.88,2.96-2.03,4.301-3.38c0.39-0.38,0.76-0.79,1.13-1.2c0,0,0,0,0.01-0.01
			c0.28-0.32,0.56-0.65,0.83-0.99c3.75-4.689,6.29-10.86,6.29-16.21V198.76C732.7,194.82,731.32,192.03,729.1,190.7z M718.9,491.01
			c0,1.82-1.07,4.42-2.49,6.55c-0.771,1.15-1.65,2.17-2.521,2.85c-0.22,0.18-0.439,0.33-0.659,0.46l-12.641,7.31l-1.43,0.84
			l-64.65,37.41c-0.02,0.011-0.029,0.021-0.04,0.021l-17.819,10.31l-100.46,58.15c-0.051,0.03-0.091,0.05-0.141,0.08L383.16,691.89
			l-3.88,2.25c-0.04,0.03-0.07,0.051-0.11,0.07l-18.68,10.8v0.01l-2.771,1.601l-21.2,12.269l-35.59,20.591v0.01l-22.04,12.75
			c-0.01,0-0.01,0.01-0.02,0.01l-5.28,3.06L260.4,762.94c-0.37,0.21-0.73,0.38-1.08,0.51c-1.721,0.66-3.28,0.45-4.601-0.29
			c-1.92-1.061-3.359-3.22-4.08-5.391c-0.35-1.029-0.529-2.069-0.529-2.989V486.05c0-3.07,3.02-8.32,5.68-9.86l337.691-195.44
			l5.079-2.94l103.721-60.03l7.189-4.16l0.95-0.55l-0.02,0.05c0.569-0.34,1.17-0.6,1.779-0.78c0.12-0.04,0.25-0.07,0.37-0.1
			c0.67-0.16,1.351-0.21,1.99-0.14c2.36,0.23,4.3,1.99,4.3,5.74c0,0.4,0.021,0.71,0.061,0.95V491.01z"/>
		<g>
			<path style="fill:#42A5F5;" d="M741.4,281.99v102.26c0,3.9-2.261,8.53-5.33,11.41c-0.49,0.46-1.011,0.88-1.54,1.24
				c-0.221,0.15-0.44,0.28-0.66,0.41l-0.481,0.28l-0.689,0.4l-0.45,0.26l-13.05,7.54l-0.3,0.17l-9.431,5.45l-1.48,0.85l-5.65,3.26
				l-29.68,17.15l-15.811,9.13l-2.97,1.72l-11.37,6.57l-76.25,44.05l-21.56,12.45l-23.32,13.48l-22.36,12.92l-85.199,49.22
				l-8.04,4.65l-0.391,0.22l-19.22,11.1l-11.76,6.801l-2.66,1.539l-7.03,4.061l-1.239,0.71l-0.671,0.39l-2.96,1.71l-6.33,3.66
				l-10.55,6.09l-12.399,7.17l-50.41,29.12c-4.15,2.391-7.55,0.431-7.55-4.359V552.82c0-4.78,3.399-10.67,7.55-13.07l280.81-162.23
				v-0.01l34.811-20.11l71.75-41.45l41.939-24.22v-0.01l9.431-5.44l13.8-7.97l1.17-0.68c0.87-0.5,1.71-0.82,2.5-0.95
				C739.29,276.2,741.4,278.21,741.4,281.99z"/>
			<path style="fill:#64B5F6;" d="M741.4,281.99v102.26c0,3.9-2.261,8.53-5.33,11.41c-0.49,0.46-1.011,0.88-1.54,1.24
				c-0.221,0.15-0.44,0.28-0.66,0.41l-0.481,0.28l-0.689,0.4l-0.45,0.26l-13.05,7.54l-0.3,0.17l-9.431,5.45l-1.48,0.85l-5.65,3.26
				l-29.68,17.15l-15.811,9.13l-2.97,1.72l-11.37,6.57l-76.25,44.05l-21.56,12.45l-23.32,13.48c-6.979-11.33-4.84-27.94,9.8-42.58
				c20.56-20.57,25.16-30.01,25.16-72.11c0-11.18,1.87-20.36,4.63-27.86v-0.01l34.811-20.11l71.75-41.45l41.939-24.22v-0.01
				l9.431-5.44l13.8-7.97l1.17-0.68c0.87-0.5,1.71-0.82,2.5-0.95C739.29,276.2,741.4,278.21,741.4,281.99z"/>
			<path style="fill:#90CAF9;" d="M741.4,281.99v102.26c0,3.9-2.261,8.53-5.33,11.41c-0.49,0.46-1.011,0.88-1.54,1.24
				c-0.221,0.15-0.44,0.28-0.66,0.41l-0.481,0.28l-0.689,0.4l-0.45,0.26l-13.05,7.54l-0.3,0.17l-9.431,5.45l-1.48,0.85l-5.65,3.26
				l-29.68,17.15l-15.811,9.13l-2.97,1.72l-11.37,6.57l-76.25,44.05c-9.92-32.87,27.82-31.65,22.99-82.95
				c-1.16-12.29-11.58-43.33,6.53-53.79l71.75-41.45l41.939-24.22v-0.01l9.431-5.44l13.8-7.97l1.17-0.68
				c0.87-0.5,1.71-0.82,2.5-0.95C739.29,276.2,741.4,278.21,741.4,281.99z"/>
			<path style="fill:#FFFFFF;" d="M390.94,508.343c0,7.076-5.734,16.123-12.812,20.211l-62.262,35.961
				c-7.077,4.086-12.812,1.662-12.812-5.414l0,0c0-7.076,5.734-16.125,12.812-20.211l62.262-35.961
				C385.205,498.843,390.94,501.267,390.94,508.343L390.94,508.343z"/>
			<path style="fill:#FFFFFF;" d="M423.983,524.171c0,7.074-5.734,16.123-12.81,20.211l-95.307,55.457
				c-7.077,4.086-12.812,1.662-12.812-5.414l0,0c0-7.076,5.734-16.125,12.812-20.211l95.307-55.457
				C418.249,514.669,423.983,517.095,423.983,524.171L423.983,524.171z"/>
			<path style="fill:#BBDEFB;" d="M410.448,558.421c0-1.738-1.408-2.336-3.146-1.336L306.2,615.477
				c-1.738,1-3.146,3.217-3.146,4.955l0,0c0,1.736,1.407,2.334,3.146,1.336l101.103-58.395
				C409.04,562.374,410.448,560.157,410.448,558.421L410.448,558.421z"/>
		</g>
		<g>
			<g>
				<path style="fill:#1E88E5;" d="M272.608,679.071c0-3.992,2.827-8.894,6.282-10.894l100.279-58.029
					c3.455-2,6.282-0.371,6.282,3.621v69.543c0,3.992-2.827,8.895-6.282,10.895l-100.279,58.029c-3.455,2-6.282,0.369-6.282-3.623
					V679.071z"/>
				<g>
					<path style="fill:#90CAF9;" d="M346.51,657.874c0-9.611-7.791-12.932-17.404-7.414c-9.613,5.517-17.404,17.781-17.404,27.394
						c0,9.611,7.791,12.932,17.404,7.414C338.719,679.751,346.51,667.485,346.51,657.874z"/>
					<path style="fill:#FFFFFF;" d="M360.484,675.913c0-1.736-1.408-2.334-3.147-1.336l-56.615,32.549
						c-1.738,0.998-3.146,3.217-3.146,4.953l0,0c0,1.736,1.408,2.336,3.146,1.336l56.615-32.547
						C359.076,679.868,360.484,677.651,360.484,675.913L360.484,675.913z"/>
					<path style="fill:#FFFFFF;" d="M360.484,687.89c0-1.736-1.408-2.334-3.147-1.336l-56.615,32.549
						c-1.738,0.998-3.146,3.215-3.146,4.953l0,0c0,1.736,1.408,2.334,3.146,1.336l56.615-32.547
						C359.076,691.845,360.484,689.628,360.484,687.89L360.484,687.89z"/>
				</g>
			</g>
			<g>
				<path style="fill:#1E88E5;" d="M509.91,541.749c0-3.992,2.826-8.895,6.282-10.895l100.277-58.029
					c3.456-2,6.283-0.369,6.283,3.623v69.541c0,3.992-2.827,8.894-6.283,10.894l-100.277,58.029c-3.456,2-6.282,0.369-6.282-3.623
					V541.749z"/>
				<g>
					<path style="fill:#90CAF9;" d="M583.812,521.425c0-9.613-7.792-12.932-17.405-7.414c-9.613,5.518-17.404,17.781-17.404,27.395
						c0,9.611,7.791,12.932,17.404,7.414C576.019,543.302,583.812,531.036,583.812,521.425z"/>
					<path style="fill:#FFFFFF;" d="M597.785,539.464c0-1.736-1.408-2.334-3.147-1.336l-56.615,32.549
						c-1.738,0.998-3.145,3.215-3.145,4.953l0,0c0,1.736,1.407,2.334,3.145,1.336l56.615-32.547
						C596.377,543.419,597.785,541.202,597.785,539.464L597.785,539.464z"/>
					<path style="fill:#FFFFFF;" d="M597.785,551.44c0-1.736-1.408-2.336-3.147-1.336l-56.615,32.547
						c-1.738,1-3.145,3.217-3.145,4.955l0,0c0,1.736,1.407,2.334,3.145,1.336l56.615-32.547
						C596.377,555.396,597.785,553.177,597.785,551.44L597.785,551.44z"/>
				</g>
			</g>
			<g>
				<path style="fill:#1976D2;" d="M628.56,473.089c0-3.992,2.827-8.895,6.283-10.894l100.276-58.029
					c3.457-2,6.283-0.37,6.283,3.623v69.541c0,3.992-2.826,8.895-6.283,10.895l-100.276,58.029c-3.456,2-6.283,0.369-6.283-3.623
					V473.089z"/>
				<g>
					<path style="fill:#90CAF9;" d="M702.461,452.065c0-9.612-7.792-12.933-17.404-7.415c-9.613,5.519-17.405,17.783-17.405,27.395
						c0,9.611,7.792,12.934,17.405,7.414C694.669,473.94,702.461,461.676,702.461,452.065z"/>
					<path style="fill:#FFFFFF;" d="M716.435,470.104c0-1.737-1.407-2.335-3.145-1.336l-56.616,32.547
						c-1.737,0.998-3.146,3.217-3.146,4.953l0,0c0,1.736,1.408,2.336,3.146,1.338l56.616-32.549
						C715.027,474.06,716.435,471.841,716.435,470.104L716.435,470.104z"/>
					<path style="fill:#FFFFFF;" d="M716.435,482.081c0-1.736-1.407-2.336-3.145-1.336l-56.616,32.547
						c-1.737,0.998-3.146,3.217-3.146,4.953l0,0c0,1.736,1.408,2.336,3.146,1.336l56.616-32.547
						C715.027,486.034,716.435,483.817,716.435,482.081L716.435,482.081z"/>
				</g>
			</g>
		</g>
	</g>
	<g>
		<g>
			<path style="fill:#448AFF;" d="M711.544,441.337c0,2.163-0.291,5.821-1.337,9.189c-1.016,3.31-2.771,6.373-5.719,7.505
				c-5.923,2.294-14.242,6.111-20.324,8.826c-0.305,0.13-0.595,0.261-0.87,0.377c-6.315,2.627-8.202,0.944-9.045-1.698
				c-0.842-2.671,0-6.895,3.18-8.782c1.713-1.017,2.99-1.728,8.551-6.098c5.574-4.384,16.94-16.099,22.21-17.551
				C708.19,433.106,711.544,437.054,711.544,441.337z"/>
			<path style="fill:#448AFF;" d="M686.388,465.862c5.491-2.554,5.43-15.327-0.876-17.67c-4.098-1.522-18.313,10.785-12.876,17.955
				C677.352,472.362,681.477,468.145,686.388,465.862z"/>
			<path style="fill:#2979FF;" d="M710.207,450.526c-1.016,3.31-2.771,6.373-5.719,7.505c-5.923,2.294-14.242,6.111-20.324,8.826
				c-0.305,0.13-0.595,0.261-0.87,0.377c-1.293-2.569,3.86-8.913,8.013-11.903c4.602-3.31,14.328-13.385,14.328-13.385
				S709.104,448.015,710.207,450.526z"/>
			<path style="fill:#0D47A1;" d="M721.591,607.575c0.838,2.492,0.807,8.307,0.807,9.922c0,1.615-11.767,3.348-15.46,2.885
				c-3.691-0.461-15.229,0.115-17.768-0.461c-2.537-0.578-2.652-5.344,3-7.287c5.653-1.943,16.729-5.865,20.998-6.904
				C717.437,604.692,721.591,607.575,721.591,607.575z"/>
			<path style="fill:#0D47A1;" d="M731.833,615.298c0,0-5.976,8.273-8.71,11.008c-2.734,2.736-10.69,9.559-10.69,12.945
				c0,3.387,8.148,3.75,12.746,0.604c4.598-3.144,8.832-6.533,13.308-8.83c4.476-2.299,6.17-5.445,6.17-6.412s-3.267-7.5-3.267-7.5
				L731.833,615.298z"/>
			<path style="fill:#37474F;" d="M727.981,480.843l-20.279-5.754c0,0-10.835,7.982-9.441,24.92
				c1.394,16.938,6.677,52.68,8.409,60.971c1.732,8.291,2.178,43.793,2.178,43.793s0,4.719,4.354,6.775
				c5.592,2.641,10.438-2.42,10.438-10.162c0-7.742,3.839-34.357,1.661-44.277c-2.178-9.92-0.138-31.34,2.681-40.889
				c2.818-9.547,9.283-20.631,9.283-28.582C737.265,479.685,727.981,480.843,727.981,480.843z"/>
			<path style="fill:#455A64;" d="M712.477,480.843c0,0-0.541,10.6,2.12,23.322c2.661,12.723,9.012,38.564,10.828,48.242
				c1.815,9.678,2.821,52.504,2.821,57.584c0,5.08-0.366,8.975,3.611,11.271c3.979,2.297,11.109,0.801,11.109-6.191
				c0-6.99,3.871-39.438,2.178-50.566c-1.694-11.129,4.593-28.688,4.593-37.396c0-8.711-0.51-33.633-12.474-43.068
				C725.301,474.604,712.477,480.843,712.477,480.843z"/>
			<path style="fill:#0D47A1;" d="M724.695,391.526c-11.069,0-16.262,7.847-17.329,13.156c-1.095,5.444-4.356,4.537-5.626,14.154
				c-0.595,4.505,0.835,8.568,3.897,10.343c2.712,1.573,6.699,4.035,11.71,4.035c8.981,0,10.239,6.74,17.77,5.924
				c7.531-0.816,17.524-6.228,15.982-16.672c-1.15-7.788-10.252-8.539-9.89-18.328C741.36,400.058,734.836,391.526,724.695,391.526z
				"/>
			<path style="fill:#448AFF;" d="M742.012,467.835c-0.274,4.167,1.003,8.68,0.378,12.659c-0.392,2.381-1.452,4.572-3.948,6.387
				c-4.965,3.615-13.994,4.225-22.036,1.916c-2.89-0.842-5.648-2.047-8.043-3.629c-9.073-5.994-5.72-13.34-7.621-18.697
				c-1.902-5.343-3.543-13.327-1.641-20.498c1.916-7.171,5.182-11.352,9.537-13.065c4.354-1.713,13.995-3.107,19.046-0.813
				c8.813,3.978,17.783,9.436,17.783,15.242c0,3.049-0.798,6.634-1.64,10.321c-0.755,3.324-1.538,6.723-1.801,9.901
				C742.026,467.646,742.012,467.732,742.012,467.835z"/>
			<path style="fill:#2979FF;" d="M742.39,480.493c-0.392,2.381-1.452,4.572-3.948,6.387c-4.965,3.615-13.994,4.225-22.036,1.916
				c3.324-7.055,13.572-11.771,16.273-18.174c3.222-7.666,0.362-15.286,0.362-15.286l10.786,2.322
				c-0.755,3.324-1.538,6.723-1.801,9.901c0,0.087-0.015,0.173-0.015,0.275C741.737,472.001,743.015,476.515,742.39,480.493z"/>
			<path style="fill:#FFAB91;" d="M732.68,422.102c0,0-2.269,8.348-1.542,12.067c0,0-8.75,11.221-14.518,8.075
				c-2.994-1.633-2.382-5.74,0-8.121c2.382-2.381,2.723-7.757,2.723-7.757L732.68,422.102z"/>
			<path style="fill:#FFCCBC;" d="M717.437,396.063c-5.073,1.705-9.436,8.569-9.436,15.309c0,6.739-1.361,13.181,1.724,17.808
				c3.085,4.627,7.894,4.446,12.975,2.178c5.081-2.268,7.803-4.265,9.255-7.621c1.451-3.357,4.627-16.604,3.176-20.959
				C733.678,398.422,728.234,392.434,717.437,396.063z"/>
			<path style="fill:#FFCCBC;" d="M730.411,419.018c0,0,1.996-4.237,4.537-3.661c2.54,0.576-0.272,7.2-2.994,8.379
				C729.231,424.915,730.411,419.018,730.411,419.018z"/>
			<path style="fill:#0D47A1;" d="M711.63,399.057c-1.087,1.64,7.893,3.357,9.973,11.523c1.525,5.995,6.722,8.801,10.442,7.349
				c3.72-1.452,5.08-4.002,5.08-4.002s1.815-13.509-2.813-17.229C729.685,392.978,716.802,391.254,711.63,399.057z"/>
			<path style="fill:#0D47A1;" d="M716.711,402.051c-2.828-0.702-7.222,3.448-9.009,6.623c0,0-2.968-1.79-1.788-6.702
				c1.18-4.912,9.935-9.402,12.884-6.454C721.747,398.467,716.711,402.051,716.711,402.051z"/>
			<path style="fill:#448AFF;" d="M741.995,440.843c4.189,4.407,10.101,12.545,13.004,19.676c2.903,7.13,13.992,21.464,6.533,27.091
				c-7.46,5.625-16.694-11.07-20.505-16.15c-3.811-5.082-8.348-14.699-8.348-18.509C732.68,449.14,740.833,439.621,741.995,440.843z
				"/>
			<path style="fill:#448AFF;" d="M761.532,487.61c-4.446,4.443-12.632,5.826-19.89,4.217c-7.259-1.607-19.779-6.935-19.779-6.935
				s-1.968-4.508,2.645-6.668c0,0,18.991-1.391,25.23-3.135C755.977,473.343,766.068,483.073,761.532,487.61z"/>
			<path style="fill:#FFCCBC;" d="M723.211,484.759c0,0,3.025-1.928,2.42-6.402c-0.604-4.477-1.513-7.336-2.647-8.924
				c-1.134-1.586-5.489-3.609-5.489-3.609s-1.497-0.881-2.314-0.881s-1.044,1.801,0,3.373c1.043,1.572,1.225,6.535,1.225,6.535
				s-0.952-1.426-1.724-2.195c-0.772-0.772-2.586-1.18-2.586-1.18s-0.296,1.563,0.499,2.359c0.795,0.795,2.768,3.221,3.13,4.672
				c0.363,1.451,0.499,5.262,2.359,5.943C719.944,485.13,721.487,485.657,723.211,484.759z"/>
			<path style="fill:#FFCCBC;" d="M683.091,456.347c2.987,2.988,7.879,0.765,9.653-1.011c1.775-1.776,4.661-2.344,3.904-3.102
				c-0.757-0.758-3.904-0.605-3.904-0.605s2.749-2.783,3.353-5.08c0.604-2.298-1.814-4.601-1.814-4.601s-4.015-1.696-6.656,0
				c0,0-3.379,0.39-5.487,3.75C680.03,449.058,680.702,453.957,683.091,456.347z"/>
		</g>
		<path style="opacity:0.7;fill:#42A5F5;" d="M683.251,450.535c0,1.337-0.945,1.89-2.102,1.23l-48.163-27.537
			c-1.155-0.66-2.102-2.295-2.102-3.632v-29.787c0-1.337,0.946-1.89,2.102-1.23l48.163,27.538c1.156,0.66,2.102,2.294,2.102,3.632
			V450.535z"/>
		<path style="opacity:0.9;fill:#BBDEFB;" d="M722.81,497.569c0,1.598-1.129,2.258-2.508,1.469l-57.512-32.879
			c-1.38-0.789-2.508-2.74-2.508-4.338v-35.566c0-1.597,1.128-2.257,2.508-1.469l57.512,32.879c1.379,0.789,2.508,2.742,2.508,4.338
			V497.569z"/>
	</g>
	<g>
		<path style="fill:#FFCCBC;" d="M400.009,583.927c-0.814-2.145,2.427-9.016,6.423-10.25c0,0,8.34-2.678,8.655,1.211
			c0.314,3.889-0.863,5.076-0.863,5.076s-0.41,5.594-3.532,6.566c-3.121,0.973-7.227-0.051-7.227-0.051L400.009,583.927z"/>
		<path style="fill:#64B5F6;" d="M405.339,588.19c-0.668,5.182-11.411,19.713-15.359,27.871c-1.19,2.469-3.484,5.068-6.197,7.172
			c0,0-0.016,0-0.016,0.016c-3.658,2.816-8.071,4.732-11.542,4.18c-2.67-0.42-9.436-1.408-16.141-2.395
			c-8.494-1.234-16.928-2.439-16.928-2.439l-10.438-7.781c0-9.393,13.66-19.975,28.177-13.238
			c13.631,6.328,15.999,4.775,15.999,4.775s20.555-18.537,23.98-21.979C401.027,580.22,406.021,582.993,405.339,588.19z"/>
		<g>
			<path style="fill:#1976D2;" d="M386.172,558.532c0-3.992,2.827-8.895,6.282-10.895l100.279-58.029
				c3.456-2,6.283-0.369,6.283,3.621v69.543c0,3.992-2.827,8.894-6.283,10.894l-100.279,58.029c-3.455,2-6.282,0.371-6.282-3.621
				V558.532z"/>
			<g>
				<path style="fill:#90CAF9;" d="M458.138,538.636c0-9.611-7.791-12.932-17.402-7.414c-9.615,5.518-17.406,17.781-17.406,27.395
					c0,9.611,7.791,12.932,17.406,7.414C450.347,560.513,458.138,548.247,458.138,538.636z"/>
				<path style="fill:#FFFFFF;" d="M472.113,556.675c0-1.736-1.409-2.334-3.148-1.336l-56.615,32.549
					c-1.738,0.998-3.145,3.217-3.145,4.953l0,0c0,1.736,1.406,2.336,3.145,1.336l56.615-32.547
					C470.704,560.63,472.113,558.413,472.113,556.675L472.113,556.675z"/>
				<path style="fill:#FFFFFF;" d="M472.113,568.651c0-1.736-1.409-2.334-3.148-1.336l-56.615,32.549
					c-1.738,0.998-3.145,3.217-3.145,4.953l0,0c0,1.736,1.406,2.336,3.145,1.336l56.615-32.547
					C470.704,572.606,472.113,570.39,472.113,568.651L472.113,568.651z"/>
			</g>
		</g>
		<path style="fill:#42A5F5;" d="M383.782,623.233c0,0-0.016,0-0.016,0.016c-3.658,2.816-8.071,4.732-11.542,4.18
			c-2.67-0.42-9.436-1.408-16.141-2.395l4.397-13.574c0,0,22.313-1.93,24.156,5.082
			C385.233,618.835,384.813,621.114,383.782,623.233z"/>
		<path style="fill:#0D47A1;" d="M392.76,811.51c-2.149,2.7-11.5,7.91-16.68,10.67c-1.5,0.801-2.65,1.4-3.17,1.67
			c-2.351,1.21-3.5,4.9-10.101,3.07c-6.47-1.79-4.17-9.979-4.069-10.33v-0.01l3.529-1.28l11.98-4.359
			c0.24-0.15,0.48-0.301,0.72-0.44C387.47,802.94,395.47,808.1,392.76,811.51z"/>
		<path style="fill:#0D47A1;" d="M356.88,797.7c-2.35,2.47-7.33,5.87-10.26,7.78c-0.69,0.449-1.26,0.819-1.66,1.069
			c-1.81,1.141-4.03,7.351-10.1,5.061c-5.471-2.07-3.5-8.591-3.04-9.891c0.05-0.149,0.08-0.23,0.08-0.23l5.189-3.34l5.44-3.511
			c1.51-0.779,2.899-1.37,4.18-1.81C356.34,789.51,359.45,795.019,356.88,797.7z"/>
		<path style="fill:#37474F;" d="M360.49,677.28v49.63c0,0-0.78,2.57-1.83,6.03c-1.68,5.52-4.04,13.3-5,16.529
			c-0.97,3.24-3.53,18.391-5.351,31.101c-0.67,4.649-1.239,8.96-1.6,12.26c-0.24,2.33-0.39,4.14-0.39,5.2
			c0,2.21-1.58,3.649-3.69,4.529c-4.27,1.761-10.72,1.21-10.72-0.05c-0.03-0.25-0.061-0.52-0.09-0.79
			c-0.23-2.239-0.4-5.21-0.49-8.66c-0.12-3.85-0.13-8.279-0.01-12.939c0.319-14.79,1.81-31.82,5.08-39.46
			c-0.061-1.29-0.091-3.26-0.091-5.72c0-4.23,0.08-9.9,0.21-16.051c0.07-3.56,0.16-7.269,0.25-10.96
			c0.03-1.109,0.061-2.21,0.091-3.31c0.059-2.17,0.109-4.32,0.17-6.39c0.06-2.011,0.109-3.941,0.17-5.78
			c0.069-2.32,0.13-4.48,0.189-6.4c0.12-3.76,0.21-6.59,0.25-7.92c0.021-0.55,0.03-0.85,0.03-0.85l0.21-0.09l0.88-0.381l4.76-2.05
			l10.73,1.59l2.34,0.351l3.65,0.54L360.49,677.28z"/>
		<path style="fill:#455A64;" d="M384.62,706.981c0.18,16.229-4.601,36.96-6.57,49.43c-0.83,5.33-1.479,13.42-1.96,21.899
			c-0.689,12.41-1.04,25.641-1.12,32.19c-0.01,1.08-0.02,1.981-0.02,2.67c0,3.49-3.53,4.78-7.391,4.94
			c-3.46,0.13-7.17-0.641-8.819-1.521v-0.01c-0.54-0.29-0.86-0.59-0.88-0.88c-0.061-0.82-0.101-1.83-0.13-3.01
			c-0.181-7.11,0.14-20.19,0.52-32.601c0.42-13.62,0.92-26.43,0.92-29.64c0-1.83-0.21-8.63-0.51-17.51
			c-0.12-3.33-0.24-6.96-0.38-10.721c-0.181-5.069-0.37-10.39-0.561-15.6c-0.13-3.63-0.27-7.2-0.399-10.59
			c-0.03-1.05-0.07-2.09-0.11-3.11c-0.01-0.16-0.01-0.31-0.02-0.47c-0.07-1.99-0.141-3.9-0.21-5.69c-0.08-2.01-0.15-3.88-0.211-5.56
			c-0.069-1.7-0.119-3.22-0.18-4.5c-0.02-0.61-0.04-1.16-0.06-1.66c-0.07-1.88-0.11-2.95-0.11-2.95h24.85
			c0.051,0.62,0.101,1.3,0.16,2.05c0.141,1.9,0.32,4.28,0.63,7.57c0.011,0.11,0.021,0.23,0.04,0.35
			c0.04,0.431,0.08,0.881,0.131,1.341c0.199,2.02,0.449,4.35,0.77,7.06c0.05,0.46,0.11,0.94,0.16,1.43
			c0.28,2.33,0.609,4.91,0.99,7.801C384.46,701.97,384.6,704.42,384.62,706.981z"/>
		<path style="fill:#64B5F6;" d="M385.06,643.774v0.117c0,13.69-1.177,30.137-2.41,37.525c-0.015,0.072-0.03,0.131-0.044,0.203
			c-1.264,7.303-5.4,12.732-13.24,13.762c-6.721,0.9-18.102-5.807-23.908-9.174c-5.807-3.354-9.639-10.918-9.639-19.307
			c0-8.391-7.1-43.566-7.1-52.088c0-7.824,7.853-14.385,17.289-12.193c9.436,2.191,22.487,9.74,27.554,13.588
			C378.599,620.04,385.016,630.13,385.06,643.774z"/>
		<path style="fill:#42A5F5;" d="M385.06,643.774v0.117c0,13.69-1.177,30.137-2.41,37.525c-0.015,0.072-0.03,0.131-0.044,0.203
			c-2.701,2.439-6.852,4.631-12.079,2.672c-9.696-3.629-9.275-30.979-5.254-43.551C368.277,631.335,379.558,639.202,385.06,643.774z
			"/>
		<path style="fill:#FFCCBC;" d="M365.299,569.558c2.885,2.346,4.565,8.109,4.248,12.619c-0.316,4.51,1.723,13.189-0.316,16.672
			c-2.373,4.059-13.183,8.377-20.445,2.791c-7.261-5.586-7.798-8.465-7.798-15.348c0-6.885-0.777-14.58,3.325-16.949
			C346.965,567.812,357.171,562.952,365.299,569.558z"/>
		<path style="fill:#FFAB91;" d="M346.9,598.456c0,2.246-1.034,9.418-1.674,10.762c0,0,0.093,5.07,6.361,7.275
			c7.595,2.67,11.631-1.483,11.991-2.67c0,0-2.616-6.588-2.616-11.154C360.963,598.099,346.9,598.456,346.9,598.456z"/>
		<path style="fill:#FFAB91;" d="M363.579,587.161c0,0,1.414-2.607,3.833-0.711c2.418,1.893-0.354,7.199-1.917,7.752
			c-1.564,0.553-3.306-2.342-3.306-2.342L363.579,587.161z"/>
		<path style="fill:#0D47A1;" d="M343.04,569.13c0,0,0.479-2.947,8.469-6.969c5.024-2.529,15.27,1.576,17.406,5.652
			c0,0,4.353,2.734,3.085,7.561c-1.267,4.824-6.645,6.248-6.645,6.248s0.248,10.42-5.165,17.227
			c-4.495,5.658-10.659,3.346-14.853,1.129c-4.192-2.215-6.168-9.092-6.168-14.988C339.17,579.093,338.763,571.907,343.04,569.13z"
			/>
		<path style="fill:#FFCCBC;" d="M403.697,624.667c0,0-0.101-2.25,1.704-4.633c1.805-2.383,3.619-5.893,4.345-7.404
			c0.726-1.512,2.602,0.666,1.814,2.662c-0.786,1.996-0.302,3.402-0.302,3.402l7.164-2.025l1.681-0.973c0,0,1.195,2.309-0.801,3.674
			c0,0-0.876,3.572-2.6,5.297c-1.725,1.725-8.892,4.113-8.892,4.113L403.697,624.667z"/>
		<path style="fill:#64B5F6;" d="M372.23,618.999c17.761,4.373,15.935,33.113,15.935,33.113h-5.081c0,0,15.56-22.678,18.146-27.582
			s10.577-3.811,8.618,4.371c-2.021,8.438-11.456,30.529-14.393,36.549c-2.936,6.018-10.148,12.211-18.904,6.744
			c-8.756-5.467-14.362-29.517-14.362-38.953C362.19,623.806,364.775,617.165,372.23,618.999z"/>
	</g>
</g>
</svg>
