<?xml version="1.0" encoding="UTF-8"?>
<svg width="358px" height="78px" viewBox="0 0 358 78" version="1.1" xmlns="http://www.w3.org/2000/svg" xmlns:xlink="http://www.w3.org/1999/xlink">
    <!-- Generator: Sketch 47.1 (45422) - http://www.bohemiancoding.com/sketch -->
    <title>logo_white</title>
    <desc>Created with Sketch.</desc>
    <defs></defs>
    <g id="Page-1" stroke="none" stroke-width="1" fill="none" fill-rule="evenodd">
        <g id="logos-ohne-claim" transform="translate(-116.000000, -428.000000)" fill="#FFFFFF">
            <g id="normal" transform="translate(72.000000, 253.000000)">
                <g id="normal-neg" transform="translate(0.000000, 143.000000)">
                    <g id="logo_white" transform="translate(44.000000, 32.000000)">
                        <path d="M203.241926,73.4017864 L209.762805,72.8716893 L209.762805,37.7338252 L203.241926,37.2037282 L203.241926,33.720233 L214.008959,33.720233 L214.463904,41.2930485 C215.82874,38.6425631 217.724344,36.5979029 220.074893,35.0833398 C222.425443,33.6445049 225.230937,32.8872233 228.491377,32.8872233 C233.192476,32.8872233 236.756212,34.3260583 239.182586,37.2037282 C241.608959,40.0813981 242.89797,44.5493592 242.89797,50.6076117 L242.89797,72.9474175 L249.418849,73.4775146 L249.418849,76.9610097 L231.600168,76.9610097 L231.600168,73.4775146 L238.121047,72.9474175 L238.121047,50.6076117 C238.121047,45.6852816 237.211157,42.1260583 235.315553,40.0813981 C233.495773,38.0367379 230.841926,36.9765437 227.429838,36.9765437 C224.093575,36.9765437 221.363904,37.8852816 219.240827,39.6270291 C217.117751,41.3687767 215.601267,43.7163495 214.691377,46.6697476 L214.691377,72.7959612 L221.212256,73.3260583 L221.212256,76.8095534 L203.393575,76.8095534 L203.393575,73.4017864 L203.241926,73.4017864 Z M261.323245,55.9843107 L261.323245,54.696932 C261.323245,49.7746019 262.612256,45.5338252 265.114454,42.1260583 C267.692476,38.7182913 271.180388,36.9765437 275.654014,36.9765437 C280.127641,36.9765437 283.615553,38.7182913 286.193575,42.1260583 C288.695773,45.6095534 289.984784,49.7746019 289.984784,54.696932 L289.984784,55.9843107 C289.984784,60.9823689 288.695773,65.2231456 286.193575,68.6309126 C283.691377,72.0386796 280.203465,73.7804272 275.729838,73.7804272 C271.180388,73.7804272 267.616652,72.0386796 265.114454,68.6309126 C262.612256,65.2231456 261.323245,60.9823689 261.323245,55.9843107 Z M256.470498,54.696932 C256.470498,48.335767 258.214454,43.1105243 261.702366,39.0212039 C265.190278,34.9318835 269.815553,32.8872233 275.57819,32.8872233 C281.340827,32.8872233 286.041926,34.9318835 289.529838,39.0212039 C293.017751,43.1105243 294.761707,48.335767 294.761707,54.696932 L294.761707,55.9843107 C294.761707,62.3454757 293.017751,67.6464466 289.529838,71.6600388 C286.041926,75.7493592 281.416652,77.7182913 275.654014,77.7182913 C269.815553,77.7182913 265.190278,75.6736311 261.702366,71.6600388 C258.214454,67.5707184 256.470498,62.3454757 256.470498,55.9843107 L256.470498,54.696932 Z M334.417751,69.8425631 C333.052915,72.3415922 331.233135,74.3105243 328.806762,75.7493592 C326.456212,77.112466 323.650718,77.7940194 320.466102,77.7940194 C315.916652,77.7940194 312.352915,76.2794563 309.774893,73.1746019 C307.196871,70.0697476 305.90786,65.2988738 305.90786,58.7862524 L305.90786,37.7338252 L300.524344,37.2037282 L300.524344,33.720233 L305.90786,33.720233 L310.684784,33.720233 L310.684784,58.8619806 C310.684784,64.1629515 311.594674,67.9493592 313.414454,70.2212039 C315.234234,72.4930485 317.736432,73.6289709 321.072696,73.6289709 C324.712256,73.6289709 327.593575,72.7959612 329.716652,71.2056699 C331.839729,69.6153786 333.356212,67.4192621 334.266102,64.5415922 L334.266102,37.7338252 L328.124344,37.2037282 L328.124344,33.720233 L334.266102,33.720233 L339.043025,33.720233 L339.043025,72.9474175 L344.881487,73.4775146 L344.881487,76.9610097 L334.872696,76.9610097 L334.417751,69.8425631 Z M133.635333,22.2852816 L128.175992,22.7396505 L144.250718,67.1163495 L145.38808,70.9784854 L145.615553,70.9784854 L146.752915,67.1163495 L162.827641,22.7396505 L157.3683,22.2852816 L157.3683,18.7260583 L172.533135,18.7260583 L172.533135,22.2852816 L167.983685,22.6639223 L147.73863,76.9610097 L143.189179,76.9610097 L122.8683,22.6639223 L118.394674,22.2852816 L118.394674,18.7260583 L133.483685,18.7260583 L133.483685,22.2852816 L133.635333,22.2852816 Z M184.741055,21.3008155 L184.741055,14.5610097 L189.517978,14.5610097 L189.517978,21.3008155 L184.741055,21.3008155 Z M178.220176,73.4017864 L184.741055,72.8716893 L184.741055,37.7338252 L178.220176,37.2037282 L178.220176,33.720233 L189.517978,33.720233 L189.517978,72.9474175 L196.038857,73.4775146 L196.038857,76.9610097 L178.220176,76.9610097 L178.220176,73.4017864 Z" id="vinou"></path>
                        <path d="M15.501267,27.5105243 C14.5913769,27.1318835 13.5298385,27.6619806 13.1507176,28.5707184 C12.7715967,29.4794563 13.3023659,30.5396505 14.212256,30.9182913 C14.9704978,31.2212039 17.1693989,32.3571262 17.624344,33.9474175 C17.9276407,35.0076117 17.5485198,36.2192621 16.5628055,37.5823689 C14.3639044,40.535767 10.5726956,40.7629515 7.99467363,39.6270291 C6.78148681,39.096932 2.91445385,37.0522718 3.82434396,31.6755728 C4.43093736,28.1163495 6.70566264,25.6173204 10.6485198,24.1784854 C13.8331352,22.966835 16.8661022,22.966835 16.8661022,22.966835 C17.8518165,22.966835 18.6858824,22.1338252 18.6858824,21.1493592 C18.6858824,20.1648932 17.8518165,19.3318835 16.8661022,19.3318835 C16.7144538,19.3318835 13.2265418,19.3318835 9.43533297,20.6949903 C4.20346484,22.5881942 1.01884945,26.1474175 0.184783516,30.9940194 C-0.725106593,36.2192621 1.77709121,40.9144078 6.55401429,42.8833398 C11.3309374,44.8522718 16.6386297,43.5648932 19.5199484,39.6270291 C21.2639044,37.2794563 21.7946736,35.0076117 21.112256,32.8114951 C20.0507176,29.2522718 15.9562121,27.6619806 15.501267,27.5105243 M44.9210473,33.5687767 C45.9067615,33.8716893 46.4375308,34.8561553 46.2100582,35.7648932 C46.1342341,35.9163495 46.0584099,36.143534 45.9067615,36.2949903 C45.4518165,36.9008155 44.6935747,37.2037282 43.935333,36.9765437 C43.6320363,36.9008155 36.3529154,34.7804272 29.4529154,29.4794563 C20.0507176,22.3610097 15.8045637,12.9707184 17.1693989,2.29304854 C17.3210473,1.30858252 18.2309374,0.627029126 19.2166516,0.778485437 C20.2023659,0.929941748 20.9606077,1.83867961 20.8089593,2.82314563 C19.5957725,12.289165 23.235333,20.3163495 31.5759923,26.6775146 C37.9452231,31.5241165 44.8452231,33.5687767 44.9210473,33.5687767 Z M49.0155527,48.335767 C52.7309374,50.4561553 54.0199484,55.151301 51.8968714,58.8619806 C49.7737945,62.5726602 45.0726956,63.8600388 41.357311,61.7396505 C37.6419264,59.6192621 36.3529154,54.9241165 38.4759923,51.2134369 C40.5990692,47.5027573 45.3001681,46.2153786 49.0155527,48.335767 Z M57.3562121,33.8716893 C61.0715967,35.9920777 62.3606077,40.6872233 60.2375308,44.3979029 C58.1144538,48.1085825 53.4133549,49.3959612 49.6979703,47.2755728 C45.9825857,45.1551845 44.6935747,40.4600388 46.8166516,36.7493592 C48.8639044,33.0386796 53.6408275,31.751301 57.3562121,33.8716893 Z M65.6210473,19.4076117 C69.3364319,21.528 70.6254429,26.2231456 68.5023659,29.9338252 C66.379289,33.6445049 61.6781901,34.9318835 57.9628055,32.8114951 C54.2474209,30.6911068 52.9584099,25.9959612 55.0814868,22.2852816 C57.2045637,18.5746019 61.9056626,17.2872233 65.6210473,19.4076117 Z M57.5078604,62.7998447 C61.2232451,64.920233 62.512256,69.6153786 60.3891791,73.3260583 C58.2661022,77.0367379 53.4891791,78.3241165 49.8496187,76.2037282 C46.1342341,74.0833398 44.8452231,69.3881942 46.9683,65.6775146 C49.0155527,61.966835 53.7924758,60.6794563 57.5078604,62.7998447 Z M65.7726956,48.335767 C69.4880802,50.4561553 70.7770912,55.151301 68.6540143,58.8619806 C66.5309374,62.5726602 61.8298385,63.8600388 58.1144538,61.7396505 C54.3990692,59.6192621 53.1100582,54.9241165 55.2331352,51.2134369 C57.3562121,47.5027573 62.057311,46.2153786 65.7726956,48.335767 Z M74.1133549,33.7959612 C77.8287396,35.9163495 79.1177505,40.6114951 76.9946736,44.3221748 C74.8715967,48.0328544 70.1704978,49.320233 66.4551132,47.1998447 C62.7397286,45.0794563 61.4507176,40.3843107 63.5737945,36.6736311 C65.6968714,32.9629515 70.3979703,31.6755728 74.1133549,33.7959612 Z M82.3781901,19.4076117 C86.0935747,21.528 87.3825857,26.2231456 85.2595088,29.9338252 C83.1364319,33.6445049 78.435333,34.9318835 74.7199484,32.8114951 C71.0045637,30.6911068 69.7155527,25.9959612 71.8386297,22.2852816 C73.9617066,18.5746019 78.6628055,17.2872233 82.3781901,19.4076117 Z M74.2650033,62.7998447 C77.9803879,64.920233 79.2693989,69.6153786 77.146322,73.3260583 C75.0232451,77.0367379 70.3221462,78.3241165 66.6067615,76.2037282 C62.8913769,74.0833398 61.6023659,69.3881942 63.7254429,65.6775146 C65.7726956,61.8911068 70.5496187,60.6037282 74.2650033,62.7998447 Z M82.5298385,48.335767 C86.2452231,50.4561553 87.5342341,55.151301 85.4111571,58.8619806 C83.2880802,62.5726602 78.5869813,63.8600388 74.8715967,61.7396505 C71.1562121,59.6192621 69.8672011,54.9241165 71.990278,51.2134369 C74.1133549,47.5027573 78.8144538,46.2153786 82.5298385,48.335767 Z M90.8704978,33.8716893 C94.5858824,35.9920777 95.8748934,40.6872233 93.7518165,44.3979029 C91.6287396,48.1085825 86.9276407,49.3959612 83.212256,47.2755728 C79.4968714,45.1551845 78.2078604,40.4600388 80.3309374,36.7493592 C82.3781901,33.0386796 87.1551132,31.751301 90.8704978,33.8716893 Z M90.7188495,62.6483883 C94.4342341,64.7687767 95.7232451,69.4639223 93.6001681,73.1746019 C91.4770912,76.8852816 86.7759923,78.1726602 83.0606077,76.0522718 C79.3452231,73.9318835 78.0562121,69.2367379 80.179289,65.5260583 C82.3023659,61.8153786 87.0034648,60.528 90.7188495,62.6483883 Z M99.0595088,48.1843107 C102.774893,50.304699 104.063904,54.9998447 101.940827,58.7105243 C99.8177505,62.4212039 95.0408275,63.7085825 91.401267,61.5881942 C87.6858824,59.4678058 86.3968714,54.7726602 88.5199484,51.0619806 C90.6430253,47.2755728 95.3441242,46.0639223 99.0595088,48.1843107 Z M107.324344,62.496932 C111.039729,64.6173204 112.32874,69.312466 110.205663,73.0231456 C108.082586,76.7338252 103.305663,78.0212039 99.6661022,75.9008155 C95.9507176,73.7804272 94.6617066,69.0852816 96.7847835,65.3746019 C98.8320363,61.6639223 103.608959,60.3765437 107.324344,62.496932 Z" id="grape"></path>
                        <path d="M345.21582,24.5927734 C345.21582,23.4091738 345.489743,22.3105519 346.037598,21.296875 C346.585452,20.2831981 347.344233,19.4848662 348.313965,18.9018555 C349.283696,18.3188447 350.331049,18.0273438 351.456055,18.0273438 C352.58106,18.0273438 353.626948,18.3188447 354.59375,18.9018555 C355.560552,19.4848662 356.317868,20.2831981 356.865723,21.296875 C357.413577,22.3105519 357.6875,23.4091738 357.6875,24.5927734 C357.6875,25.7470761 357.423831,26.82812 356.896484,27.8359375 C356.369138,28.843755 355.62061,29.6538055 354.650879,30.2661133 C353.681147,30.878421 352.616217,31.1845703 351.456055,31.1845703 C350.301752,31.1845703 349.239751,30.8813507 348.27002,30.2749023 C347.300288,29.668454 346.548831,28.8613332 346.015625,27.8535156 C345.482419,26.8456981 345.21582,25.7587949 345.21582,24.5927734 Z M346.226562,24.5927734 C346.226562,25.600591 346.460935,26.5336871 346.929688,27.3920898 C347.39844,28.2504926 348.035641,28.9228491 348.841309,29.4091797 C349.646977,29.8955102 350.51855,30.1386719 351.456055,30.1386719 C352.399419,30.1386719 353.275387,29.8911158 354.083984,29.3959961 C354.892582,28.9008764 355.526853,28.2285199 355.986816,27.3789062 C356.44678,26.5292926 356.676758,25.600591 356.676758,24.5927734 C356.676758,23.5908153 356.44678,22.6665081 355.986816,21.8198242 C355.526853,20.9731403 354.892582,20.3051782 354.083984,19.815918 C353.275387,19.3266577 352.399419,19.0820312 351.456055,19.0820312 C350.51855,19.0820312 349.645512,19.3237281 348.836914,19.8071289 C348.028316,20.2905298 347.391116,20.9599567 346.925293,21.8154297 C346.45947,22.6709027 346.226562,23.5966747 346.226562,24.5927734 Z M350.164062,25.2519531 L350.164062,28.2226562 L348.924805,28.2226562 L348.924805,20.7607422 L351.350586,20.7607422 C352.247075,20.7607422 352.942869,20.9526348 353.437988,21.3364258 C353.933108,21.7202168 354.180664,22.2783167 354.180664,23.0107422 C354.180664,23.7314489 353.805668,24.2822247 353.055664,24.6630859 C353.770511,24.9560562 354.130859,25.5537064 354.136719,26.4560547 L354.136719,26.9921875 C354.136719,27.4960963 354.186523,27.8593739 354.286133,28.0820312 L354.286133,28.2226562 L353.011719,28.2226562 C352.929687,28.0117177 352.888672,27.6352566 352.888672,27.0932617 C352.888672,26.5512668 352.879883,26.2304692 352.862305,26.1308594 C352.768554,25.5683566 352.384769,25.2753907 351.710938,25.2519531 L350.164062,25.2519531 Z M350.164062,24.1269531 L351.535156,24.1269531 C351.957033,24.1152343 352.296874,24.0126963 352.554688,23.8193359 C352.812501,23.6259756 352.941406,23.3710953 352.941406,23.0546875 C352.941406,22.626951 352.82715,22.3237314 352.598633,22.1450195 C352.370116,21.9663077 351.962894,21.8769531 351.376953,21.8769531 L350.164062,21.8769531 L350.164062,24.1269531 Z" id="register"></path>
                    </g>
                </g>
            </g>
        </g>
    </g>
</svg>