<?xml version="1.0" encoding="UTF-8"?>
<svg width="66px" height="118px" viewBox="0 0 66 118" version="1.1" xmlns="http://www.w3.org/2000/svg" xmlns:xlink="http://www.w3.org/1999/xlink">
    <!-- Generator: Sketch 47.1 (45422) - http://www.bohemiancoding.com/sketch -->
    <title>vinou_grape</title>
    <desc>Created with Sketch.</desc>
    <defs></defs>
    <g id="Page-1" stroke="none" stroke-width="1" fill="none" fill-rule="evenodd">
        <g id="logos-ohne-claim" transform="translate(-151.000000, -87.000000)" fill="#660808">
            <g id="grape_single" transform="translate(72.000000, 65.000000)">
                <g id="vinou_grape" transform="translate(114.341978, 75.747423) rotate(60.000000) translate(-114.341978, -75.747423) translate(58.341978, 37.247423)">
                    <path d="M15.501267,26.9592233 C14.5913769,26.5805825 13.5298385,27.1106796 13.1507176,28.0194175 C12.7715967,28.9281553 13.3023659,29.9883495 14.212256,30.3669903 C14.9704978,30.6699029 17.1693989,31.8058252 17.624344,33.3961165 C17.9276407,34.4563107 17.5485198,35.6679612 16.5628055,37.031068 C14.3639044,39.984466 10.5726956,40.2116505 7.99467363,39.0757282 C6.78148681,38.5456311 2.91445385,36.5009709 3.82434396,31.1242718 C4.43093736,27.5650485 6.70566264,25.0660194 10.6485198,23.6271845 C13.8331352,22.415534 16.8661022,22.415534 16.8661022,22.415534 C17.8518165,22.415534 18.6858824,21.5825243 18.6858824,20.5980583 C18.6858824,19.6135922 17.8518165,18.7805825 16.8661022,18.7805825 C16.7144538,18.7805825 13.2265418,18.7805825 9.43533297,20.1436893 C4.20346484,22.0368932 1.01884945,25.5961165 0.184783516,30.4427184 C-0.725106593,35.6679612 1.77709121,40.3631068 6.55401429,42.3320388 C11.3309374,44.3009709 16.6386297,43.0135922 19.5199484,39.0757282 C21.2639044,36.7281553 21.7946736,34.4563107 21.112256,32.2601942 C20.0507176,28.7009709 15.9562121,27.1106796 15.501267,26.9592233 M44.9210473,33.0174757 C44.8452231,33.0174757 37.9452231,30.9728155 31.5759923,26.1262136 C23.235333,19.7650485 19.5957725,11.7378641 20.8089593,2.27184466 C20.9606077,1.28737864 20.2023659,0.378640777 19.2166516,0.227184466 C18.2309374,0.0757281553 17.3210473,0.757281553 17.1693989,1.74174757 C15.8045637,12.4194175 20.0507176,21.8097087 29.4529154,28.9281553 C36.3529154,34.2291262 43.6320363,36.3495146 43.935333,36.4252427 C44.6935747,36.6524272 45.4518165,36.3495146 45.9067615,35.7436893 C46.0584099,35.592233 46.1342341,35.3650485 46.2100582,35.2135922 C46.4375308,34.3048544 45.9067615,33.3203883 44.9210473,33.0174757" id="Fill-9"></path>
                    <path d="M49.0155527,47.784466 C52.7309374,49.9048544 54.0199484,54.6 51.8968714,58.3106796 C49.7737945,62.0213592 45.0726956,63.3087379 41.357311,61.1883495 C37.6419264,59.0679612 36.3529154,54.3728155 38.4759923,50.6621359 C40.5990692,46.9514563 45.3001681,45.6640777 49.0155527,47.784466" id="Fill-11"></path>
                    <path d="M57.3562121,33.3203883 C61.0715967,35.4407767 62.3606077,40.1359223 60.2375308,43.8466019 C58.1144538,47.5572816 53.4133549,48.8446602 49.6979703,46.7242718 C45.9825857,44.6038835 44.6935747,39.9087379 46.8166516,36.1980583 C48.8639044,32.4873786 53.6408275,31.2 57.3562121,33.3203883" id="Fill-13"></path>
                    <path d="M65.6210473,18.8563107 C69.3364319,20.976699 70.6254429,25.6718447 68.5023659,29.3825243 C66.379289,33.0932039 61.6781901,34.3805825 57.9628055,32.2601942 C54.2474209,30.1398058 52.9584099,25.4446602 55.0814868,21.7339806 C57.2045637,18.023301 61.9056626,16.7359223 65.6210473,18.8563107" id="Fill-15"></path>
                    <path d="M57.5078604,62.2485437 C61.2232451,64.368932 62.512256,69.0640777 60.3891791,72.7747573 C58.2661022,76.4854369 53.4891791,77.7728155 49.8496187,75.6524272 C46.1342341,73.5320388 44.8452231,68.8368932 46.9683,65.1262136 C49.0155527,61.415534 53.7924758,60.1281553 57.5078604,62.2485437" id="Fill-17"></path>
                    <path d="M65.7726956,47.784466 C69.4880802,49.9048544 70.7770912,54.6 68.6540143,58.3106796 C66.5309374,62.0213592 61.8298385,63.3087379 58.1144538,61.1883495 C54.3990692,59.0679612 53.1100582,54.3728155 55.2331352,50.6621359 C57.3562121,46.9514563 62.057311,45.6640777 65.7726956,47.784466" id="Fill-19"></path>
                    <path d="M74.1133549,33.2446602 C77.8287396,35.3650485 79.1177505,40.0601942 76.9946736,43.7708738 C74.8715967,47.4815534 70.1704978,48.768932 66.4551132,46.6485437 C62.7397286,44.5281553 61.4507176,39.8330097 63.5737945,36.1223301 C65.6968714,32.4116505 70.3979703,31.1242718 74.1133549,33.2446602" id="Fill-21"></path>
                    <path d="M82.3781901,18.8563107 C86.0935747,20.976699 87.3825857,25.6718447 85.2595088,29.3825243 C83.1364319,33.0932039 78.435333,34.3805825 74.7199484,32.2601942 C71.0045637,30.1398058 69.7155527,25.4446602 71.8386297,21.7339806 C73.9617066,18.023301 78.6628055,16.7359223 82.3781901,18.8563107" id="Fill-23"></path>
                    <path d="M74.2650033,62.2485437 C77.9803879,64.368932 79.2693989,69.0640777 77.146322,72.7747573 C75.0232451,76.4854369 70.3221462,77.7728155 66.6067615,75.6524272 C62.8913769,73.5320388 61.6023659,68.8368932 63.7254429,65.1262136 C65.7726956,61.3398058 70.5496187,60.0524272 74.2650033,62.2485437" id="Fill-25"></path>
                    <path d="M82.5298385,47.784466 C86.2452231,49.9048544 87.5342341,54.6 85.4111571,58.3106796 C83.2880802,62.0213592 78.5869813,63.3087379 74.8715967,61.1883495 C71.1562121,59.0679612 69.8672011,54.3728155 71.990278,50.6621359 C74.1133549,46.9514563 78.8144538,45.6640777 82.5298385,47.784466" id="Fill-27"></path>
                    <path d="M90.8704978,33.3203883 C94.5858824,35.4407767 95.8748934,40.1359223 93.7518165,43.8466019 C91.6287396,47.5572816 86.9276407,48.8446602 83.212256,46.7242718 C79.4968714,44.6038835 78.2078604,39.9087379 80.3309374,36.1980583 C82.3781901,32.4873786 87.1551132,31.2 90.8704978,33.3203883" id="Fill-29"></path>
                    <path d="M90.7188495,62.0970874 C94.4342341,64.2174757 95.7232451,68.9126214 93.6001681,72.623301 C91.4770912,76.3339806 86.7759923,77.6213592 83.0606077,75.5009709 C79.3452231,73.3805825 78.0562121,68.6854369 80.179289,64.9747573 C82.3023659,61.2640777 87.0034648,59.976699 90.7188495,62.0970874" id="Fill-31"></path>
                    <path d="M99.0595088,47.6330097 C102.774893,49.7533981 104.063904,54.4485437 101.940827,58.1592233 C99.8177505,61.8699029 95.0408275,63.1572816 91.401267,61.0368932 C87.6858824,58.9165049 86.3968714,54.2213592 88.5199484,50.5106796 C90.6430253,46.7242718 95.3441242,45.5126214 99.0595088,47.6330097" id="Fill-33"></path>
                    <path d="M107.324344,61.9456311 C111.039729,64.0660194 112.32874,68.761165 110.205663,72.4718447 C108.082586,76.1825243 103.305663,77.4699029 99.6661022,75.3495146 C95.9507176,73.2291262 94.6617066,68.5339806 96.7847835,64.823301 C98.8320363,61.1126214 103.608959,59.8252427 107.324344,61.9456311" id="Fill-35"></path>
                </g>
            </g>
        </g>
    </g>
</svg>