<?xml version="1.0" encoding="UTF-8"?>
<svg width="179px" height="39px" viewBox="0 0 179 39" version="1.1" xmlns="http://www.w3.org/2000/svg" xmlns:xlink="http://www.w3.org/1999/xlink">
    <!-- Generator: Sketch 47.1 (45422) - http://www.bohemiancoding.com/sketch -->
    <title>logo_black</title>
    <desc>Created with Sketch.</desc>
    <defs></defs>
    <g id="Page-1" stroke="none" stroke-width="1" fill="none" fill-rule="evenodd">
        <g id="logos-ohne-claim" transform="translate(-98.000000, -680.000000)" fill="#000000">
            <g id="sw" transform="translate(72.000000, 665.000000)">
                <g id="logo_black" transform="translate(26.000000, 15.000000)">
                    <path d="M101.332441,36.7772455 L104.585872,36.508982 L104.585872,18.7269461 L101.332441,18.4586826 L101.332441,16.6958084 L106.704386,16.6958084 L106.931369,20.5281437 C107.61232,19.1868263 108.558085,18.1520958 109.730834,17.3856287 C110.903582,16.657485 112.303314,16.2742515 113.93003,16.2742515 C116.275527,16.2742515 118.053565,17.0023952 119.264145,18.4586826 C120.474724,19.9149701 121.117844,22.1760479 121.117844,25.2419162 L121.117844,36.5473054 L124.371276,36.8155689 L124.371276,38.5784431 L115.481085,38.5784431 L115.481085,36.8155689 L118.734516,36.5473054 L118.734516,25.2419162 C118.734516,22.7508982 118.280549,20.9497006 117.334784,19.9149701 C116.42685,18.8802395 115.102779,18.3437126 113.400402,18.3437126 C111.735855,18.3437126 110.373954,18.8035928 109.314697,19.6850299 C108.25544,20.5664671 107.498828,21.754491 107.044861,23.2491018 L107.044861,36.4706587 L110.298293,36.7389222 L110.298293,38.5017964 L101.408102,38.5017964 L101.408102,36.7772455 L101.332441,36.7772455 Z M130.31068,27.9628743 L130.31068,27.3113772 C130.31068,24.8203593 130.9538,22.6742515 132.20221,20.9497006 C133.48845,19.2251497 135.228658,18.3437126 137.460663,18.3437126 C139.692668,18.3437126 141.432876,19.2251497 142.719116,20.9497006 C143.967526,22.7125749 144.610646,24.8203593 144.610646,27.3113772 L144.610646,27.9628743 C144.610646,30.4922156 143.967526,32.6383234 142.719116,34.3628743 C141.470706,36.0874251 139.730499,36.9688623 137.498493,36.9688623 C135.228658,36.9688623 133.450619,36.0874251 132.20221,34.3628743 C130.9538,32.6383234 130.31068,30.4922156 130.31068,27.9628743 Z M127.889521,27.3113772 C127.889521,24.0922156 128.759625,21.4479042 130.499833,19.3784431 C132.24004,17.308982 134.547707,16.2742515 137.422832,16.2742515 C140.297958,16.2742515 142.643455,17.308982 144.383663,19.3784431 C146.12387,21.4479042 146.993974,24.0922156 146.993974,27.3113772 L146.993974,27.9628743 C146.993974,31.1820359 146.12387,33.8646707 144.383663,35.8958084 C142.643455,37.9652695 140.335788,38.9616766 137.460663,38.9616766 C134.547707,38.9616766 132.24004,37.9269461 130.499833,35.8958084 C128.759625,33.8263473 127.889521,31.1820359 127.889521,27.9628743 L127.889521,27.3113772 Z M166.779377,34.9760479 C166.098427,36.2407186 165.190492,37.2371257 163.979913,37.9652695 C162.807164,38.6550898 161.407432,39 159.818547,39 C157.548711,39 155.770673,38.2335329 154.484433,36.6622754 C153.198192,35.091018 152.555072,32.6766467 152.555072,29.3808383 L152.555072,18.7269461 L149.869099,18.4586826 L149.869099,16.6958084 L152.555072,16.6958084 L154.9384,16.6958084 L154.9384,29.4191617 C154.9384,32.1017964 155.392367,34.0179641 156.300301,35.1676647 C157.208236,36.3173653 158.456645,36.8922156 160.121192,36.8922156 C161.937061,36.8922156 163.374623,36.4706587 164.43388,35.6658683 C165.493137,34.8610778 166.249749,33.7497006 166.703716,32.2934132 L166.703716,18.7269461 L163.639438,18.4586826 L163.639438,16.6958084 L166.703716,16.6958084 L169.087044,16.6958084 L169.087044,36.5473054 L172,36.8155689 L172,38.5784431 L167.006361,38.5784431 L166.779377,34.9760479 Z M66.6039505,10.908982 L63.8801473,11.1389222 L71.9002343,33.5964072 L72.4676933,35.5508982 L72.5811851,35.5508982 L73.1486441,33.5964072 L81.1687312,11.1389222 L78.444928,10.908982 L78.444928,9.10778443 L86.0110479,9.10778443 L86.0110479,10.908982 L83.7412119,11.1005988 L73.6404419,38.5784431 L71.370606,38.5784431 L61.2320054,11.1005988 L59,10.908982 L59,9.10778443 L66.5282893,9.10778443 L66.5282893,10.908982 L66.6039505,10.908982 Z M92.1018878,10.4107784 L92.1018878,7 L94.4852156,7 L94.4852156,10.4107784 L92.1018878,10.4107784 Z M88.8484563,36.7772455 L92.1018878,36.508982 L92.1018878,18.7269461 L88.8484563,18.4586826 L88.8484563,16.6958084 L94.4852156,16.6958084 L94.4852156,36.5473054 L97.7386471,36.8155689 L97.7386471,38.5784431 L88.8484563,38.5784431 L88.8484563,36.7772455 Z" id="vinou"></path>
                    <path d="M7.80439945,13.2947442 C7.346298,13.1065817 6.8118463,13.3700092 6.6209707,13.8215993 C6.43009509,14.2731893 6.69732094,14.8000444 7.15542239,14.9882069 C7.5371736,15.1387369 8.64425211,15.7032245 8.87330284,16.493507 C9.02600333,17.0203621 8.83512772,17.6224821 8.33885115,18.2998672 C7.23177263,19.7675348 5.32301658,19.8804324 4.02506246,19.3159448 C3.41426053,19.0525173 1.46732935,18.0364397 1.92543081,15.3645319 C2.23083177,13.5958043 3.37608541,12.3539316 5.3611917,11.6389141 C6.96454679,11.036794 8.49155163,11.036794 8.49155163,11.036794 C8.9878282,11.036794 9.40775454,10.6228365 9.40775454,10.1336139 C9.40775454,9.64439137 8.9878282,9.23043383 8.49155163,9.23043383 C8.41520139,9.23043383 6.65914582,9.23043383 4.75038977,9.9078189 C2.11630641,10.8486315 0.512951326,12.6173592 0.0930249943,15.0258394 C-0.365076459,17.6224821 0.894702537,19.9556974 3.29973516,20.9341425 C5.70476779,21.9125875 8.37702627,21.272835 9.82768087,19.3159448 C10.7057087,18.1493372 10.9729345,17.0203621 10.6293584,15.9290195 C10.0949067,14.1602918 8.03345018,13.3700092 7.80439945,13.2947442 M22.6163464,16.3053445 C23.112623,16.4558745 23.3798488,16.9450971 23.2653235,17.3966871 C23.2271484,17.4719521 23.1889732,17.5848496 23.112623,17.6601146 C22.8835723,17.9611747 22.5018211,18.1117047 22.1200699,17.9988072 C21.9673694,17.9611747 18.3025577,16.9074646 14.8286217,14.2731893 C10.0949067,10.735734 7.95709994,6.06930353 8.64425211,0.76312052 C8.72060236,0.273897973 9.17870381,-0.0647945598 9.67498038,0.0104704474 C10.171257,0.0857354546 10.5530082,0.537325498 10.4766579,1.02654804 C9.86585599,5.730611 11.6982618,9.71965638 15.8975251,12.8807867 C19.1042353,15.2892669 22.5781713,16.3053445 22.6163464,16.3053445 Z M24.677803,23.6436827 C26.5483839,24.6973928 27.197361,27.030608 26.1284576,28.8746007 C25.0595542,30.7185934 22.6926967,31.358346 20.8221157,30.3046359 C18.9515348,29.2509258 18.3025577,26.9177105 19.3714611,25.0737179 C20.4403645,23.2297252 22.807222,22.5899726 24.677803,23.6436827 Z M28.8770663,16.4558745 C30.7476472,17.5095846 31.3966243,19.8427999 30.3277209,21.6867925 C29.2588175,23.5307852 26.89196,24.1705378 25.0213791,23.1168277 C23.1507981,22.0631176 22.5018211,19.7299023 23.5707245,17.8859097 C24.6014527,16.041917 27.0064854,15.4021644 28.8770663,16.4558745 Z M33.0381545,9.26806634 C34.9087354,10.3217764 35.5577125,12.6549917 34.4888091,14.4989843 C33.4199057,16.342977 31.0530482,16.9827296 29.1824673,15.9290195 C27.3118863,14.8753094 26.6629093,12.5420942 27.7318127,10.6981015 C28.800716,8.8541088 31.1675735,8.21435623 33.0381545,9.26806634 Z M28.9534165,30.8314909 C30.8239975,31.885201 31.4729745,34.2184162 30.4040711,36.0624089 C29.3351677,37.9064016 26.9301351,38.5461541 25.0977293,37.492444 C23.2271484,36.4387339 22.5781713,34.1055187 23.6470747,32.261526 C24.677803,30.4175334 27.0828356,29.7777808 28.9534165,30.8314909 Z M33.1145047,23.6436827 C34.9850857,24.6973928 35.6340627,27.030608 34.5651593,28.8746007 C33.4962559,30.7185934 31.1293984,31.358346 29.2588175,30.3046359 C27.3882366,29.2509258 26.7392595,26.9177105 27.8081629,25.0737179 C28.8770663,23.2297252 31.2439238,22.5899726 33.1145047,23.6436827 Z M37.313768,16.418242 C39.184349,17.4719521 39.833326,19.8051673 38.7644226,21.64916 C37.6955193,23.4931527 35.3286617,24.1329053 33.4580808,23.0791952 C31.5874999,22.0254851 30.9385228,19.6922698 32.0074262,17.8482772 C33.0763296,16.0042845 35.4431871,15.3645319 37.313768,16.418242 Z M41.4748562,9.26806634 C43.3454372,10.3217764 43.9944142,12.6549917 42.9255108,14.4989843 C41.8566074,16.342977 39.4897499,16.9827296 37.619169,15.9290195 C35.7485881,14.8753094 35.099611,12.5420942 36.1685144,10.6981015 C37.2374178,8.8541088 39.6042753,8.21435623 41.4748562,9.26806634 Z M37.3901183,30.8314909 C39.2606992,31.885201 39.9096763,34.2184162 38.8407729,36.0624089 C37.7718695,37.9064016 35.405012,38.5461541 33.5344311,37.492444 C31.6638501,36.4387339 31.0148731,34.1055187 32.0837765,32.261526 C33.1145047,30.3799009 35.5195373,29.7401483 37.3901183,30.8314909 Z M41.5512065,23.6436827 C43.4217874,24.6973928 44.0707645,27.030608 43.0018611,28.8746007 C41.9329577,30.7185934 39.5661002,31.358346 37.6955193,30.3046359 C35.8249383,29.2509258 35.1759613,26.9177105 36.2448647,25.0737179 C37.313768,23.2297252 39.6806255,22.5899726 41.5512065,23.6436827 Z M45.7504698,16.4558745 C47.6210507,17.5095846 48.2700278,19.8427999 47.2011244,21.6867925 C46.132221,23.5307852 43.7653635,24.1705378 41.8947826,23.1168277 C40.0242016,22.0631176 39.3752246,19.7299023 40.444128,17.8859097 C41.4748562,16.041917 43.8798889,15.4021644 45.7504698,16.4558745 Z M45.6741196,30.7562259 C47.5447005,31.809936 48.1936775,34.1431512 47.1247742,35.9871439 C46.0558708,37.8311366 43.6890133,38.4708891 41.8184323,37.417179 C39.9478514,36.3634689 39.2988743,34.0302537 40.3677777,32.186261 C41.4366811,30.3422684 43.8035386,29.7025158 45.6741196,30.7562259 Z M49.8733829,23.5684177 C51.7439638,24.6221278 52.3929409,26.955343 51.3240375,28.7993357 C50.2551341,30.6433284 47.8501015,31.2830809 46.0176956,30.2293708 C44.1471147,29.1756607 43.4981377,26.8424455 44.567041,24.9984528 C45.6359444,23.1168277 48.0028019,22.5147076 49.8733829,23.5684177 Z M54.0344711,30.6809609 C55.905052,31.734671 56.5540291,34.0678862 55.4851257,35.9118789 C54.4162223,37.7558716 52.0111897,38.3956241 50.1787838,37.341914 C48.3082029,36.2882039 47.6592259,33.9549887 48.7281292,32.110996 C49.7588575,30.2670034 52.1638901,29.6272508 54.0344711,30.6809609 Z" id="grape"></path>
                    <path d="M173,12.492986 C173,11.863279 173.131782,11.2787825 173.395349,10.739479 C173.658916,10.2001754 174.023958,9.77544132 174.490486,9.46526386 C174.957014,9.1550864 175.460885,9 176.002114,9 C176.543343,9 177.046509,9.1550864 177.511628,9.46526386 C177.976747,9.77544132 178.341084,10.2001754 178.604651,10.739479 C178.868218,11.2787825 179,11.863279 179,12.492986 C179,13.1071062 178.873151,13.6822507 178.61945,14.2184369 C178.365749,14.754623 178.00564,15.1855918 177.539112,15.511356 C177.072584,15.8371203 176.560256,16 176.002114,16 C175.446791,16 174.935873,15.838679 174.469345,15.5160321 C174.002817,15.1933852 173.641298,14.7639751 173.384778,14.2277889 C173.128258,13.6916028 173,13.1133409 173,12.492986 Z M173.486258,12.492986 C173.486258,13.0291721 173.599012,13.5256045 173.824524,13.9822979 C174.050036,14.4389914 174.356587,14.7967032 174.744186,15.0554442 C175.131785,15.3141852 175.55109,15.4435538 176.002114,15.4435538 C176.455957,15.4435538 176.877376,15.3118472 177.266385,15.0484302 C177.655393,14.7850132 177.960534,14.4273013 178.181818,13.9752839 C178.403102,13.5232665 178.513742,13.0291721 178.513742,12.492986 C178.513742,11.9599172 178.403102,11.4681608 178.181818,11.0177021 C177.960534,10.5672434 177.655393,10.2118695 177.266385,9.95156981 C176.877376,9.69127013 176.455957,9.56112224 176.002114,9.56112224 C175.55109,9.56112224 175.13108,9.68971147 174.742072,9.94689379 C174.353064,10.2040761 174.046513,10.5602293 173.82241,11.0153641 C173.598308,11.4704988 173.486258,11.9630345 173.486258,12.492986 Z M175.38055,12.8436874 L175.38055,14.4241817 L174.784355,14.4241817 L174.784355,10.4542418 L175.951374,10.4542418 C176.382666,10.4542418 176.717405,10.5563339 176.955603,10.760521 C177.1938,10.9647082 177.312896,11.2616324 177.312896,11.6513026 C177.312896,12.0347381 177.132489,12.3277656 176.77167,12.5303941 C177.115576,12.6862622 177.288936,13.0042283 177.291755,13.4843019 L177.291755,13.7695391 C177.291755,14.0376322 177.315715,14.2309057 177.363636,14.3493654 L177.363636,14.4241817 L176.750529,14.4241817 C176.711064,14.3119567 176.691332,14.1116692 176.691332,13.8233133 C176.691332,13.5349574 176.687104,13.3642844 176.678647,13.3112892 C176.633545,13.0120226 176.448909,12.8561568 176.124736,12.8436874 L175.38055,12.8436874 Z M175.38055,12.245157 L176.040169,12.245157 C176.24313,12.2389223 176.406624,12.1843693 176.530655,12.0814963 C176.654687,11.9786234 176.716702,11.8430202 176.716702,11.6746827 C176.716702,11.4471153 176.661734,11.2857943 176.551797,11.1907148 C176.44186,11.0956352 176.245949,11.0480962 175.964059,11.0480962 L175.38055,11.0480962 L175.38055,12.245157 Z" id="register"></path>
                </g>
            </g>
        </g>
    </g>
</svg>